<svg xmlns="http://www.w3.org/2000/svg" version="1.1" width="500" height="500"><path d="M0 0 C1.47672061 -0.00135889 2.95344088 -0.00314154 4.43016052 -0.00531006 C8.40128705 -0.00982686 12.37238728 -0.00811865 16.3435142 -0.00493097 C20.52495434 -0.0023769 24.70639241 -0.00475337 28.88783264 -0.00631714 C35.90732217 -0.00813021 42.92680114 -0.00575545 49.94628906 -0.00097656 C58.02775607 0.00446226 66.10919783 0.00270266 74.19066423 -0.00280297 C81.16433804 -0.0073613 88.13800431 -0.00797133 95.11167914 -0.0053643 C99.26131037 -0.00381616 103.41092979 -0.00356715 107.56056023 -0.00690079 C111.46521862 -0.00981918 115.36984492 -0.007732 119.27449989 -0.00200653 C120.69574302 -0.0006999 122.11698892 -0.00103668 123.5382309 -0.0032692 C135.64868146 -0.02051819 147.88395414 0.04882959 159.73071289 2.81689453 C160.48304199 2.9905957 161.23537109 3.16429688 162.01049805 3.34326172 C183.13043265 8.47753695 202.1507284 20.40380593 213.79321289 39.12939453 C215.30774262 41.92688384 216.63785536 44.78061663 217.91821289 47.69189453 C218.43750366 48.86401489 218.43750366 48.86401489 218.96728516 50.05981445 C221.91882566 56.96314364 223.59151135 63.7106255 224.79321289 71.12939453 C224.95653107 71.87352097 225.11984924 72.6176474 225.28811646 73.38432312 C228.22191637 89.32878381 226.94187947 106.30445024 226.92753839 122.4601934 C226.9249713 126.2665792 226.92736411 130.07296283 226.92892456 133.87934875 C226.93073307 140.26291341 226.92837412 146.64646642 226.92358398 153.0300293 C226.9181369 160.37313222 226.91991261 167.7162074 226.92541039 175.05930966 C226.92997093 181.40886567 226.93057796 187.75841341 226.92797172 194.10797054 C226.92642595 197.88083495 226.92616802 201.65368637 226.92950821 205.42654991 C226.93243028 208.97340423 226.93033299 212.52022326 226.92461395 216.06707382 C226.92269538 217.96312666 226.92560249 219.85918255 226.92874146 221.75523376 C226.90121553 233.12009916 226.52468931 244.49281337 224.10571289 255.62939453 C223.93273682 256.42982178 223.75976074 257.23024902 223.58154297 258.05493164 C220.92520271 269.61884314 216.25237565 279.84381126 208.79321289 289.12939453 C208.12547852 289.96083984 207.45774414 290.79228516 206.76977539 291.64892578 C189.47734101 311.96909687 167.12186664 318.42886838 141.60441208 320.84519196 C129.50802311 321.74722429 117.34198887 321.5623418 105.21943402 321.53237104 C101.07971 321.52461389 96.94000282 321.53186354 92.80027771 321.53652954 C85.85574696 321.54194214 78.91131285 321.53491596 71.96679688 321.52050781 C64.01476045 321.50419657 56.06295513 321.50947712 48.1109243 321.52598703 C41.20219572 321.53973967 34.29353541 321.54145513 27.38479751 321.53367102 C23.29417303 321.52906825 19.20365596 321.52815886 15.11303902 321.53828049 C-41.17793448 321.65850406 -41.17793448 321.65850406 -66.20678711 308.12939453 C-66.20678711 307.46939453 -66.20678711 306.80939453 -66.20678711 306.12939453 C-66.78170898 306.02369141 -67.35663086 305.91798828 -67.94897461 305.80908203 C-79.49125765 302.33441551 -88.63075582 288.95724095 -94.08178711 278.81689453 C-107.55410963 252.65912339 -105.36488185 221.98553175 -105.33959961 193.40283203 C-105.33982385 190.67583175 -105.34124673 187.94883225 -105.34249878 185.22183228 C-105.34430214 179.54225162 -105.34196242 173.86268411 -105.3371582 168.18310547 C-105.33171389 161.67275993 -105.33348696 155.16244571 -105.33898461 148.65210092 C-105.3435623 142.9987707 -105.34414393 137.34544976 -105.34154594 131.69211829 C-105.34000917 128.34336561 -105.34012559 124.99463901 -105.34308243 121.64588547 C-105.37108685 81.03927227 -105.37108685 81.03927227 -102.45678711 67.69189453 C-102.28195801 66.86117432 -102.10712891 66.0304541 -101.92700195 65.17456055 C-100.43522158 58.45238076 -98.29082537 52.29747106 -95.20678711 46.12939453 C-94.80073242 45.23478516 -94.39467773 44.34017578 -93.97631836 43.41845703 C-89.17199931 33.58439633 -81.10578525 24.52988713 -72.20678711 18.12939453 C-71.54678711 18.12939453 -70.88678711 18.12939453 -70.20678711 18.12939453 C-70.20678711 17.46939453 -70.20678711 16.80939453 -70.20678711 16.12939453 C-47.35093279 3.88084494 -25.9041006 -0.04062693 0 0 Z " fill="#FDFDFD" transform="translate(189.206787109375,83.87060546875)"/><path d="M0 0 C12.14133613 0.54814159 23.04302956 3.99845542 33 11 C33.64710938 11.45117188 34.29421875 11.90234375 34.9609375 12.3671875 C42.56981291 18.24828334 47.5828116 27.54817322 49 37 C49.95023874 48.51359728 49.60936142 59.26228306 45 70 C44.7421875 70.62326172 44.484375 71.24652344 44.21875 71.88867188 C37.83010074 87.04692532 27.93370373 98.20295918 14 107 C13.16339844 107.52980469 12.32679688 108.05960937 11.46484375 108.60546875 C-0.2074259 115.45390449 -13.27785208 118.962881 -26.33666992 122.10791016 C-49.15642281 127.62602576 -74.9402758 134.25218854 -93 150 C-93.82886719 150.70898438 -94.65773438 151.41796875 -95.51171875 152.1484375 C-99.81639599 155.61676405 -99.81639599 155.61676405 -103 160 C-113.99968461 160.69107966 -122.55001675 159.26096528 -131.125 152 C-134.74683416 148.70039307 -135.70949874 146.61927368 -136.23828125 141.8515625 C-136.42325175 136.30244763 -135.77516119 133.3276238 -132 129 C-116.95180969 112.92654837 -90.46671783 106.03599676 -69.01464844 104.83251953 C-63.00257158 104.67614726 -57.00911038 104.78082272 -51 105 C-51 104.34 -51 103.68 -51 103 C-71.23977343 101.19321859 -92.42623953 99.63936352 -112 106 C-113.06226807 106.33741211 -113.06226807 106.33741211 -114.14599609 106.68164062 C-122.44389759 109.38250433 -130.11489017 112.51664905 -137 118 C-137.71800781 118.54527344 -138.43601563 119.09054687 -139.17578125 119.65234375 C-144.61122955 124.03448762 -148.18615281 128.34944464 -149.41015625 135.34375 C-149.84680939 142.41977007 -147.2731566 147.85114153 -144 154 C-149.44366966 153.44856333 -153.88891168 152.09864763 -158.875 149.875 C-159.57536377 149.5651416 -160.27572754 149.2552832 -160.99731445 148.93603516 C-166.6478391 146.343403 -171.41650097 143.22621068 -176 139 C-176.9075 138.175 -177.815 137.35 -178.75 136.5 C-186.09344859 128.34061268 -188.50732749 121.59783919 -188.30859375 110.46875 C-187.8747321 105.59192533 -186.59657173 102.11575997 -184 98 C-183.53722656 97.26394531 -183.07445312 96.52789062 -182.59765625 95.76953125 C-170.75446348 78.9458271 -149.49039901 71.53654216 -130 68 C-119.48255933 66.23190629 -109.26058602 65.71103783 -98.60961914 65.79418945 C-96.17258323 65.81261277 -93.73592701 65.81469701 -91.29882812 65.81445312 C-84.33075371 65.83054056 -77.45246108 65.94796178 -70.52514648 66.77075195 C-64.68310082 67.30112814 -58.79946971 67.19859771 -52.9375 67.1875 C-52.24991608 67.18623108 -51.56233215 67.18496216 -50.85391235 67.18365479 C-30.6623863 67.11260438 -10.33424924 65.5063551 7 54 C7.928125 53.43539062 7.928125 53.43539062 8.875 52.859375 C14.72695586 49.07578285 19.33891885 43.46430775 22 37 C23.54209674 28.23439747 23.61528705 21.39211848 18.625 13.94921875 C14.63996773 8.86255497 10.11056885 6.06839124 4.35546875 3.2265625 C2 2 2 2 0 0 Z " fill="#406CE8" transform="translate(320,179)"/><path d="M0 0 C12.14133613 0.54814159 23.04302956 3.99845542 33 11 C33.64710938 11.45117188 34.29421875 11.90234375 34.9609375 12.3671875 C42.56981291 18.24828334 47.5828116 27.54817322 49 37 C49.95023874 48.51359728 49.60936142 59.26228306 45 70 C44.7421875 70.62326172 44.484375 71.24652344 44.21875 71.88867188 C37.83010074 87.04692532 27.93370373 98.20295918 14 107 C13.16339844 107.52980469 12.32679688 108.05960937 11.46484375 108.60546875 C-0.18547039 115.4410226 -13.25966034 118.99444905 -26.30810547 122.0925293 C-33.52123833 123.81789502 -40.5857203 125.92751496 -47.6418457 128.20898438 C-48.43163818 128.45712891 -49.22143066 128.70527344 -50.03515625 128.9609375 C-50.7300415 129.18571777 -51.42492676 129.41049805 -52.14086914 129.64208984 C-54 130 -54 130 -57 129 C-57 128.34 -57 127.68 -57 127 C-56.28972656 126.86722656 -55.57945312 126.73445313 -54.84765625 126.59765625 C-53.46900391 126.33275391 -53.46900391 126.33275391 -52.0625 126.0625 C-50.68771484 125.80146484 -50.68771484 125.80146484 -49.28515625 125.53515625 C-47.04710156 125.22285012 -47.04710156 125.22285012 -46 124 C-44.48530552 123.76807135 -42.96245438 123.58784762 -41.4375 123.4375 C-40.61121094 123.35371094 -39.78492188 123.26992188 -38.93359375 123.18359375 C-38.29550781 123.12300781 -37.65742188 123.06242187 -37 123 C-37.33 121.68 -37.66 120.36 -38 119 C-33.25 118.875 -33.25 118.875 -31 120 C-29.32854779 119.345424 -27.66303361 118.6756785 -26 118 C-23.43675791 117.43430032 -20.89199765 116.9103662 -18.3125 116.4375 C-13.52220144 115.65559317 -13.52220144 115.65559317 -9 114 C-9 113.01 -9 112.02 -9 111 C-5.98968256 110.06576355 -5.13349732 109.95550089 -2 111 C-1.67 110.34 -1.34 109.68 -1 109 C-0.34 109 0.32 109 1 109 C1 109.66 1 110.32 1 111 C1.66 111 2.32 111 3 111 C3.33 110.34 3.66 109.68 4 109 C4.845625 108.54625 5.69125 108.0925 6.5625 107.625 C7.7690625 106.820625 7.7690625 106.820625 9 106 C9 104.68 9 103.36 9 102 C9.680625 102.268125 10.36125 102.53625 11.0625 102.8125 C15.00476411 103.06413388 16.47621047 101.5481835 19.44921875 99.12890625 C21 98 21 98 23 98 C23.185625 97.13375 23.185625 97.13375 23.375 96.25 C24.02758152 93.90070655 24.69371429 92.06255638 26 90 C27.3153341 89.29848848 28.65117592 88.63474075 30 88 C31.37086915 86.70529025 32.71340837 85.37849103 34 84 C33.34 84 32.68 84 32 84 C32 83.01 32 82.02 32 81 C32.66 81 33.32 81 34 81 C33.67 79.68 33.34 78.36 33 77 C32.67 77.66 32.34 78.32 32 79 C31.34 78.34 30.68 77.68 30 77 C24.52072063 78.981867 20.63639556 81.69015976 16.2109375 85.4765625 C13.74243354 87.17747512 11.91048 87.43993918 9 88 C7.66198658 88.99372927 6.32863859 89.99377077 5 91 C2.59765625 91.73046875 2.59765625 91.73046875 0.0625 92.1875 C-0.77152344 92.34605469 -1.60554687 92.50460937 -2.46484375 92.66796875 C-5.00815129 93.00106758 -7.43817447 93.05957734 -10 93 C-10 93.66 -10 94.32 -10 95 C-30.7130685 95.60679171 -49.72685735 94.83342454 -70 90 C-71.80757098 89.59952211 -73.61613375 89.20348759 -75.42578125 88.8125 C-78.45079168 88.15758876 -81.47178348 87.48993376 -84.48828125 86.796875 C-85.64714844 86.53390625 -86.80601562 86.2709375 -88 86 C-88.76231934 85.82654053 -89.52463867 85.65308105 -90.31005859 85.47436523 C-95.91072947 84.48669928 -101.63942727 84.5226138 -107.3125 84.3125 C-108.60607422 84.25255859 -109.89964844 84.19261719 -111.23242188 84.13085938 C-117.95655849 83.87977908 -123.5717164 84.01265905 -130 86 C-131.0725 85.979375 -132.145 85.95875 -133.25 85.9375 C-136.00712295 85.73095251 -136.00712295 85.73095251 -137.77734375 87.3515625 C-140.48634124 89.36069596 -143.14087874 90.30078498 -146.3125 91.4375 C-150.10031768 92.84039544 -153.66473744 94.22300526 -157.125 96.3125 C-160 98 -160 98 -163 98 C-163 98.66 -163 99.32 -163 100 C-167.47058824 104 -167.47058824 104 -170 104 C-170.33 104.99 -170.66 105.98 -171 107 C-171.66 107 -172.32 107 -173 107 C-173.309375 107.61875 -173.61875 108.2375 -173.9375 108.875 C-174.625 110.25 -175.3125 111.625 -176 113 C-176.66 113 -177.32 113 -178 113 C-178.66 114.65 -179.32 116.3 -180 118 C-180.99 118 -181.98 118 -183 118 C-184.68798827 119.43750191 -184.68798827 119.43750191 -186 121 C-187.07318928 117.78043217 -186.870689 117.09578311 -186 114 C-186 113.01 -186 112.02 -186 111 C-185.7446986 109.45189576 -185.44999707 107.90998614 -185.125 106.375 C-184.96257812 105.57835937 -184.80015625 104.78171875 -184.6328125 103.9609375 C-184.42398438 103.31382812 -184.21515625 102.66671875 -184 102 C-183.01 101.505 -183.01 101.505 -182 101 C-181.01 101.99 -180.02 102.98 -179 104 C-178.67 103.01 -178.34 102.02 -178 101 C-178.66 100.67 -179.32 100.34 -180 100 C-179.67 98.68 -179.34 97.36 -179 96 C-178.01 96 -177.02 96 -176 96 C-175.67 94.35 -175.34 92.7 -175 91 C-173.35 91 -171.7 91 -170 91 C-170 89.68 -170 88.36 -170 87 C-166.28079428 84.07776693 -162.23356484 82.07174449 -158 80 C-156.32983484 79.00585407 -154.66279327 78.0064275 -153 77 C-151.948125 76.505 -151.948125 76.505 -150.875 76 C-148.95167946 75.13010468 -148.95167946 75.13010468 -147.8359375 73.56640625 C-145.15008603 71.27486063 -142.11082111 70.72276878 -138.75 69.9375 C-137.81414062 69.69676758 -137.81414062 69.69676758 -136.859375 69.45117188 C-124.18871965 66.37012384 -111.57800483 65.69294585 -98.60961914 65.79418945 C-96.17258323 65.81261277 -93.73592701 65.81469701 -91.29882812 65.81445312 C-84.33075371 65.83054056 -77.45246108 65.94796178 -70.52514648 66.77075195 C-64.68310082 67.30112814 -58.79946971 67.19859771 -52.9375 67.1875 C-52.24991608 67.18623108 -51.56233215 67.18496216 -50.85391235 67.18365479 C-30.6623863 67.11260438 -10.33424924 65.5063551 7 54 C7.928125 53.43539062 7.928125 53.43539062 8.875 52.859375 C14.72695586 49.07578285 19.33891885 43.46430775 22 37 C23.54209674 28.23439747 23.61528705 21.39211848 18.625 13.94921875 C14.63996773 8.86255497 10.11056885 6.06839124 4.35546875 3.2265625 C2 2 2 2 0 0 Z " fill="#A387F2" transform="translate(320,179)"/><path d="M0 0 C4.3699418 1.62217536 7.84659677 4.58706708 11.44628906 7.48242188 C13.74995173 9.31143259 16.11356178 11.0557521 18.47558594 12.80834961 C26.55703309 18.81110696 34.54666802 24.93661353 42.55078125 31.04174805 C52.21457571 38.41110086 61.93770714 45.69146951 71.74584961 52.86767578 C76.20961648 56.13452987 80.64806028 59.43227256 85.0625 62.765625 C84.31687366 70.40829496 80.77178403 75.8348797 75.0625 80.765625 C69.47808537 84.88045684 64.96178189 86.46586437 58.0625 88.765625 C58.0625 81.835625 58.0625 74.905625 58.0625 67.765625 C56.7425 67.105625 55.4225 66.445625 54.0625 65.765625 C52.71432993 64.84912666 51.38715144 63.90127462 50.078125 62.9296875 C49.3159668 62.36612549 48.55380859 61.80256348 47.76855469 61.22192383 C46.95805664 60.61759521 46.14755859 60.0132666 45.3125 59.390625 C44.46848633 58.76502686 43.62447266 58.13942871 42.75488281 57.49487305 C36.77600655 53.05789977 30.81860933 48.59226932 24.86914062 44.1159668 C19.00598883 39.70896936 13.09430702 35.36982597 7.171875 31.04296875 C4.0625 28.765625 4.0625 28.765625 1.890625 26.89453125 C0.15519761 25.59652461 0.15519761 25.59652461 -1.80859375 25.79296875 C-4.88096707 27.19667693 -7.38593465 29.22517893 -10 31.328125 C-11.16572745 32.24598578 -12.33240865 33.16263642 -13.5 34.078125 C-14.37011719 34.76261719 -14.37011719 34.76261719 -15.2578125 35.4609375 C-18.49341992 37.97417675 -21.8304968 40.34667343 -25.15625 42.73828125 C-27.19648031 44.2254716 -29.21334307 45.72896468 -31.21875 47.26171875 C-31.76587646 47.6786499 -32.31300293 48.09558105 -32.87670898 48.52514648 C-34.42184442 49.70590045 -35.96298525 50.89187633 -37.50390625 52.078125 C-39.9375 53.765625 -39.9375 53.765625 -41.9375 53.765625 C-41.9375 54.425625 -41.9375 55.085625 -41.9375 55.765625 C-43.48217773 56.66577148 -43.48217773 56.66577148 -45.62109375 57.63671875 C-50.79077237 60.32388201 -55.51427416 62.92888161 -58.9375 67.765625 C-61.3846549 76.46030023 -60.6313494 85.84551997 -59.9375 94.765625 C-62.49826097 95.43966784 -65.06076583 96.105039 -67.625 96.765625 C-68.34623047 96.95640625 -69.06746094 97.1471875 -69.81054688 97.34375 C-70.51630859 97.52421875 -71.22207031 97.7046875 -71.94921875 97.890625 C-72.59334717 98.05820313 -73.23747559 98.22578125 -73.90112305 98.3984375 C-75.9375 98.765625 -75.9375 98.765625 -80.9375 98.765625 C-80.9375 93.485625 -80.9375 88.205625 -80.9375 82.765625 C-85.97930385 82.96238332 -85.97930385 82.96238332 -91.01831055 83.21606445 C-95.12277399 83.29650343 -96.5691962 83.04996317 -99.953125 80.4375 C-101.9375 77.765625 -101.9375 77.765625 -102 74.703125 C-99.75438288 68.49465415 -93.53400861 65.13501639 -88.375 61.390625 C-86.66008291 60.13681905 -84.9452413 58.88290986 -83.23046875 57.62890625 C-82.35310059 56.98904785 -81.47573242 56.34918945 -80.57177734 55.68994141 C-77.23099414 53.24952869 -73.90097663 50.7947323 -70.57226562 48.33789062 C-68.21262012 46.59666163 -65.85058145 44.85871875 -63.48828125 43.12109375 C-60.47771467 40.90504463 -57.47591033 38.67785198 -54.48046875 36.44140625 C-53.43874512 35.6673645 -53.43874512 35.6673645 -52.37597656 34.87768555 C-51.07429677 33.91031956 -49.77531141 32.93931376 -48.47949219 31.96411133 C-44.16296435 28.765625 -44.16296435 28.765625 -41.9375 28.765625 C-41.9375 28.105625 -41.9375 27.445625 -41.9375 26.765625 C-36.52573529 22.765625 -36.52573529 22.765625 -33.9375 22.765625 C-33.9375 22.105625 -33.9375 21.445625 -33.9375 20.765625 C-28.52573529 16.765625 -28.52573529 16.765625 -25.9375 16.765625 C-25.9375 16.105625 -25.9375 15.445625 -25.9375 14.765625 C-24.35546875 13.5390625 -24.35546875 13.5390625 -22.125 12.140625 C-18.35713479 9.74720119 -14.88064247 7.15205287 -11.375 4.390625 C-4.50517093 -0.54498035 -4.50517093 -0.54498035 0 0 Z " fill="#597BF1" transform="translate(249.9375,144.234375)"/><path d="M0 0 C0.33 0 0.66 0 1 0 C1.46314178 10.74231632 1.19640299 19.9024053 -3 30 C-3.38671875 30.94141846 -3.38671875 30.94141846 -3.78125 31.90185547 C-10.17099609 47.05161804 -20.07363711 58.20759382 -34 67 C-34.83660156 67.52980469 -35.67320312 68.05960937 -36.53515625 68.60546875 C-48.18547039 75.4410226 -61.25966034 78.99444905 -74.30810547 82.0925293 C-81.52123833 83.81789502 -88.5857203 85.92751496 -95.6418457 88.20898438 C-96.43163818 88.45712891 -97.22143066 88.70527344 -98.03515625 88.9609375 C-98.7300415 89.18571777 -99.42492676 89.41049805 -100.14086914 89.64208984 C-102 90 -102 90 -105 89 C-105 88.34 -105 87.68 -105 87 C-104.28972656 86.86722656 -103.57945312 86.73445313 -102.84765625 86.59765625 C-101.92855469 86.42105469 -101.00945312 86.24445313 -100.0625 86.0625 C-98.68771484 85.80146484 -98.68771484 85.80146484 -97.28515625 85.53515625 C-95.04710156 85.22285012 -95.04710156 85.22285012 -94 84 C-92.48530552 83.76807135 -90.96245438 83.58784762 -89.4375 83.4375 C-88.61121094 83.35371094 -87.78492188 83.26992188 -86.93359375 83.18359375 C-86.29550781 83.12300781 -85.65742188 83.06242187 -85 83 C-85.33 81.68 -85.66 80.36 -86 79 C-81.25 78.875 -81.25 78.875 -79 80 C-77.32854779 79.345424 -75.66303361 78.6756785 -74 78 C-71.43675791 77.43430032 -68.89199765 76.9103662 -66.3125 76.4375 C-61.52220144 75.65559317 -61.52220144 75.65559317 -57 74 C-57 73.01 -57 72.02 -57 71 C-53.98968256 70.06576355 -53.13349732 69.95550089 -50 71 C-49.67 70.34 -49.34 69.68 -49 69 C-48.34 69 -47.68 69 -47 69 C-47 69.66 -47 70.32 -47 71 C-46.34 71 -45.68 71 -45 71 C-44.67 70.34 -44.34 69.68 -44 69 C-43.154375 68.54625 -42.30875 68.0925 -41.4375 67.625 C-40.2309375 66.820625 -40.2309375 66.820625 -39 66 C-39 64.68 -39 63.36 -39 62 C-38.319375 62.268125 -37.63875 62.53625 -36.9375 62.8125 C-32.99523589 63.06413388 -31.52378953 61.5481835 -28.55078125 59.12890625 C-27 58 -27 58 -25 58 C-24.814375 57.13375 -24.814375 57.13375 -24.625 56.25 C-23.97241848 53.90070655 -23.30628571 52.06255638 -22 50 C-20.6846659 49.29848848 -19.34882408 48.63474075 -18 48 C-16.62913085 46.70529025 -15.28659163 45.37849103 -14 44 C-14.66 44 -15.32 44 -16 44 C-16 43.01 -16 42.02 -16 41 C-15.34 41 -14.68 41 -14 41 C-14.495 39.02 -14.495 39.02 -15 37 C-15.495 37.99 -15.495 37.99 -16 39 C-16.66 38.34 -17.32 37.68 -18 37 C-23.47927937 38.981867 -27.36360444 41.69015976 -31.7890625 45.4765625 C-34.25756646 47.17747512 -36.08952 47.43993918 -39 48 C-40.33801342 48.99372927 -41.67136141 49.99377077 -43 51 C-45.40234375 51.73046875 -45.40234375 51.73046875 -47.9375 52.1875 C-48.77152344 52.34605469 -49.60554688 52.50460937 -50.46484375 52.66796875 C-53.00815129 53.00106758 -55.43817447 53.05957734 -58 53 C-58 53.66 -58 54.32 -58 55 C-60.97 54.505 -60.97 54.505 -64 54 C-64 53.67 -64 53.34 -64 53 C-62.97003906 52.8040625 -61.94007813 52.608125 -60.87890625 52.40625 C-52.79859801 50.75324214 -45.3433505 48.60403758 -37.875 45.0625 C-37.18994385 44.73894531 -36.5048877 44.41539062 -35.79907227 44.08203125 C-32.35444216 42.38185392 -29.23321717 40.51817657 -26.1328125 38.24609375 C-23 36 -23 36 -21 36 C-21 35.34 -21 34.68 -21 34 C-19.35546875 32.44921875 -19.35546875 32.44921875 -17.1875 30.6875 C-14.02846014 28.02432354 -11.99198464 25.65197184 -10 22 C-9.34 22 -8.68 22 -8 22 C-8.309375 20.6696875 -8.309375 20.6696875 -8.625 19.3125 C-9.0306702 15.72907994 -8.84461416 14.07435693 -7 11 C-4.875 10.1875 -4.875 10.1875 -3 10 C-3.061875 9.0925 -3.12375 8.185 -3.1875 7.25 C-2.98333433 3.71112844 -2.41406917 2.51063194 0 0 Z " fill="#A03FD4" transform="translate(368,219)"/><path d="M0 0 C2.94079548 1.37964261 5.48058368 2.97503924 8.08984375 4.90625 C8.8677124 5.48028564 9.64558105 6.05432129 10.44702148 6.64575195 C11.26887939 7.25765381 12.0907373 7.86955566 12.9375 8.5 C13.78707275 9.1293042 14.63664551 9.7586084 15.51196289 10.40698242 C21.39610326 14.77654785 27.22495191 19.21190826 33.01953125 23.69921875 C40.78636864 29.69485076 48.67485485 35.52377895 56.625 41.2734375 C58.76538736 42.82944279 60.88777869 44.40605522 63 46 C62.25437366 53.64266996 58.70928403 59.0692547 53 64 C47.41558537 68.11483184 42.89928189 69.70023937 36 72 C36 65.07 36 58.14 36 51 C34.68 50.34 33.36 49.68 32 49 C29.21972957 47.14002564 26.55587407 45.12486491 23.875 43.125 C23.14667969 42.59519531 22.41835938 42.06539062 21.66796875 41.51953125 C20.62189453 40.74029297 20.62189453 40.74029297 19.5546875 39.9453125 C18.92030762 39.47625488 18.28592773 39.00719727 17.63232422 38.52392578 C15.82184168 36.83367271 14.96907544 35.26239268 14 33 C16.8125 32.375 16.8125 32.375 20 32 C23 34 23 34 24 37 C23.34 37.99 22.68 38.98 22 40 C24.64 40 27.28 40 30 40 C30.2475 40.598125 30.495 41.19625 30.75 41.8125 C32.19192497 44.33586869 33.52549626 45.50030076 36 47 C36.99 47 37.98 47 39 47 C40.25 53.625 40.25 53.625 38 57 C37.75812349 59.74518321 37.75812349 59.74518321 37.875 62.6875 C37.89304687 63.68136719 37.91109375 64.67523438 37.9296875 65.69921875 C37.95289063 66.45847656 37.97609375 67.21773438 38 68 C38.66 68 39.32 68 40 68 C40 67.01 40 66.02 40 65 C41.2375 64.938125 42.475 64.87625 43.75 64.8125 C47.15991493 64.39753681 47.79653026 64.20896892 50.3125 61.625 C50.869375 60.75875 51.42625 59.8925 52 59 C52.556875 58.54625 53.11375 58.0925 53.6875 57.625 C55.77240235 55.04369233 55.69614499 52.22086315 56 49 C55.01 48.505 55.01 48.505 54 48 C54 47.34 54 46.68 54 46 C53.38125 46.185625 52.7625 46.37125 52.125 46.5625 C50 47 50 47 48 46 C48.33 44.68 48.66 43.36 49 42 C49.66 42 50.32 42 51 42 C49.906875 41.401875 48.81375 40.80375 47.6875 40.1875 C43.74793831 37.92722622 41.47404793 36.4221438 40 32 C37.10441559 30.5522078 35.25811062 30 32 30 C32 28.35 32 26.7 32 25 C31.34 25 30.68 25 30 25 C30 24.34 30 23.68 30 23 C28.35 23.33 26.7 23.66 25 24 C25 23.01 25 22.02 25 21 C24.34 21 23.68 21 23 21 C22.67 21.66 22.34 22.32 22 23 C21.01 21.02 20.02 19.04 19 17 C18.01 17 17.02 17 16 17 C16 15.68 16 14.36 16 13 C14.68 12.67 13.36 12.34 12 12 C12 12.66 12 13.32 12 14 C11.34 14 10.68 14 10 14 C10 13.34 10 12.68 10 12 C9.34 11.67 8.68 11.34 8 11 C7.855625 10.34 7.71125 9.68 7.5625 9 C7.376875 8.34 7.19125 7.68 7 7 C6.01 6.67 5.02 6.34 4 6 C3.01 7.485 3.01 7.485 2 9 C2 8.34 2 7.68 2 7 C1.34 7 0.68 7 0 7 C0 4.69 0 2.38 0 0 Z " fill="#8A4DDC" transform="translate(272,161)"/><path d="M0 0 C-1.66666667 1 -3.33333333 2 -5 3 C-5.804375 3.495 -6.60875 3.99 -7.4375 4.5 C-10 6 -10 6 -13 7.4375 C-18.53924985 10.25258948 -18.53924985 10.25258948 -21.8125 15.25 C-21.9053125 16.11625 -21.9053125 16.11625 -22 17 C-23.65 16.67 -25.3 16.34 -27 16 C-27.33 17.65 -27.66 19.3 -28 21 C-28.99 21.33 -29.98 21.66 -31 22 C-31.33 22.99 -31.66 23.98 -32 25 C-31.01 25.33 -30.02 25.66 -29 26 C-29.66 27.32 -30.32 28.64 -31 30 C-31.99 29.67 -32.98 29.34 -34 29 C-34.33 28.34 -34.66 27.68 -35 27 C-35.33730842 28.43657245 -35.66969591 29.87430093 -36 31.3125 C-36.185625 32.11300781 -36.37125 32.91351563 -36.5625 33.73828125 C-37.09495823 36.10695938 -37.09495823 36.10695938 -37 39 C-37.185625 39.86625 -37.37125 40.7325 -37.5625 41.625 C-37.706875 42.40875 -37.85125 43.1925 -38 44 C-37.67 44.33 -37.34 44.66 -37 45 C-36.54625 44.505 -36.0925 44.01 -35.625 43.5 C-34 42 -34 42 -32 42 C-31.34 40.68 -30.68 39.36 -30 38 C-29.34 38 -28.68 38 -28 38 C-27.7525 37.443125 -27.505 36.88625 -27.25 36.3125 C-25.75571133 33.54806595 -24.12772489 31.31546532 -22 29 C-19.8125 28.375 -19.8125 28.375 -18 28 C-17.67 27.01 -17.34 26.02 -17 25 C-16.34 25 -15.68 25 -15 25 C-15 24.34 -15 23.68 -15 23 C-12.69 22.34 -10.38 21.68 -8 21 C-10.37704918 25.75409836 -10.37704918 25.75409836 -13.375 26.9375 C-16.38046003 28.15399573 -17.59835606 29.75203988 -19.53515625 32.2890625 C-21.81817451 34.95562783 -24.57211878 37.03115326 -27.328125 39.19140625 C-29.37271986 41.40319928 -29.65712103 43.0502324 -30 46 C-31.485 46.495 -31.485 46.495 -33 47 C-33 47.99 -33 48.98 -33 50 C-32.01 50 -31.02 50 -30 50 C-30 50.66 -30 51.32 -30 52 C-29.34 52.33 -28.68 52.66 -28 53 C-28.33 54.98 -28.66 56.96 -29 59 C-28.01 59.33 -27.02 59.66 -26 60 C-26.495 60.495 -26.495 60.495 -27 61 C-25.68 61.66 -24.36 62.32 -23 63 C-23 63.99 -23 64.98 -23 66 C-21.35 66 -19.7 66 -18 66 C-18 66.66 -18 67.32 -18 68 C-16.02 68.66 -14.04 69.32 -12 70 C-12 70.66 -12 71.32 -12 72 C-9.69 72.66 -7.38 73.32 -5 74 C-5.66 71.03 -6.32 68.06 -7 65 C-5.68 64.01 -4.36 63.02 -3 62 C-2.34 66.29 -1.68 70.58 -1 75 C-9.3643793 76.85993187 -15.06411625 73.23209826 -22 69 C-30.78819584 63.17649673 -37.16184508 56.31707665 -40 46 C-40.84967972 37.57236282 -40.57570607 30.25283559 -36 23 C-35.53722656 22.26394531 -35.07445312 21.52789062 -34.59765625 20.76953125 C-28.9292263 12.71731168 -11.03719786 -4.40426645 0 0 Z " fill="#3AA9E9" transform="translate(172,254)"/><path d="M0 0 C-0.33 0.66 -0.66 1.32 -1 2 C-3.56047949 2.456589 -6.04361856 2.79791991 -8.625 3.0625 C-10.03391815 3.21947891 -11.44277302 3.37702682 -12.8515625 3.53515625 C-13.89135254 3.65141357 -13.89135254 3.65141357 -14.95214844 3.77001953 C-21.57886095 4.30989148 -21.57886095 4.30989148 -27.5 7 C-30.9449934 9.14543116 -33.96324968 9.49540621 -38 10 C-41.50506338 11.05222998 -44.35706433 12.02161963 -46.4375 15.1875 C-46.623125 15.785625 -46.80875 16.38375 -47 17 C-47 16.34 -47 15.68 -47 15 C-47.50789063 15.25394531 -48.01578125 15.50789063 -48.5390625 15.76953125 C-49.22742188 16.11371094 -49.91578125 16.45789063 -50.625 16.8125 C-51.71748047 17.37324219 -51.71748047 17.37324219 -52.83203125 17.9453125 C-55 19 -55 19 -58.3125 20.1875 C-62.30606353 22.88083354 -62.9146623 26.45871857 -64 31 C-63.34 31.33 -62.68 31.66 -62 32 C-62.66 32 -63.32 32 -64 32 C-63.855625 33.27875 -63.71125 34.5575 -63.5625 35.875 C-63.48128906 36.59429687 -63.40007812 37.31359375 -63.31640625 38.0546875 C-63.08707039 40.07404316 -63.08707039 40.07404316 -62 42 C-62.33 42.66 -62.66 43.32 -63 44 C-60.03 44 -57.06 44 -54 44 C-53.67 45.98 -53.34 47.96 -53 50 C-58.19848525 49.4041262 -62.68836401 48.87599719 -66.5625 45.125 C-70.41265091 40.18890909 -70.73021994 35.13169976 -70 29 C-64.40127413 17.07227966 -50.92945355 10.82952131 -39.140625 6.55859375 C-26.58367839 2.27678879 -13.30622461 -0.63362974 0 0 Z " fill="#4A68D2" transform="translate(254,285)"/><path d="M0 0 C12.14133613 0.54814159 23.04302956 3.99845542 33 11 C33.97066406 11.67675781 33.97066406 11.67675781 34.9609375 12.3671875 C42.54396221 18.22830267 47.52664126 27.56388221 49 37 C48.56640625 39.2890625 48.56640625 39.2890625 48 41 C47.67 41 47.34 41 47 41 C46.896875 40.236875 46.79375 39.47375 46.6875 38.6875 C46.2429527 35.99867239 46.2429527 35.99867239 44.5625 34.5625 C41.56596924 31.56596924 40.93220796 27.03956783 40 23 C39.34 23 38.68 23 38 23 C37.34 21.68 36.68 20.36 36 19 C35.01 19 34.02 19 33 19 C32.7525 18.030625 32.505 17.06125 32.25 16.0625 C31.8375 15.051875 31.425 14.04125 31 13 C28.96756452 12.03122943 28.96756452 12.03122943 27 12 C25.23236273 14.6140566 25.23236273 14.6140566 24 18 C24.77030122 21.48809191 24.77030122 21.48809191 26 25 C26.31678141 29.59333044 26.0140732 32.84597402 24 37 C23.67 37 23.34 37 23 37 C23.03480469 36.154375 23.06960938 35.30875 23.10546875 34.4375 C23.35179989 24.11505224 22.25727782 17.59383755 15.17578125 9.890625 C11.89023435 7.0356794 8.24330452 5.14634899 4.35546875 3.2265625 C2 2 2 2 0 0 Z " fill="#DD6FEA" transform="translate(320,179)"/><path d="M0 0 C0.99 0.33 1.98 0.66 3 1 C-14.09272633 20.83681972 -34.226093 30.13733029 -59.30810547 36.0925293 C-66.52123833 37.81789502 -73.5857203 39.92751496 -80.6418457 42.20898438 C-81.82653442 42.58120117 -81.82653442 42.58120117 -83.03515625 42.9609375 C-83.7300415 43.18571777 -84.42492676 43.41049805 -85.14086914 43.64208984 C-87 44 -87 44 -90 43 C-90 42.34 -90 41.68 -90 41 C-88.93458984 40.80083984 -88.93458984 40.80083984 -87.84765625 40.59765625 C-86.92855469 40.42105469 -86.00945312 40.24445313 -85.0625 40.0625 C-84.14597656 39.88847656 -83.22945313 39.71445312 -82.28515625 39.53515625 C-80.04710156 39.22285012 -80.04710156 39.22285012 -79 38 C-77.48530552 37.76807135 -75.96245438 37.58784762 -74.4375 37.4375 C-73.61121094 37.35371094 -72.78492188 37.26992188 -71.93359375 37.18359375 C-71.29550781 37.12300781 -70.65742188 37.06242187 -70 37 C-70.33 35.68 -70.66 34.36 -71 33 C-66.25 32.875 -66.25 32.875 -64 34 C-62.32854779 33.345424 -60.66303361 32.6756785 -59 32 C-56.43675791 31.43430032 -53.89199765 30.9103662 -51.3125 30.4375 C-46.52220144 29.65559317 -46.52220144 29.65559317 -42 28 C-42 27.01 -42 26.02 -42 25 C-38.98968256 24.06576355 -38.13349732 23.95550089 -35 25 C-34.67 24.34 -34.34 23.68 -34 23 C-33.34 23 -32.68 23 -32 23 C-32 23.66 -32 24.32 -32 25 C-31.34 25 -30.68 25 -30 25 C-29.67 24.34 -29.34 23.68 -29 23 C-28.154375 22.54625 -27.30875 22.0925 -26.4375 21.625 C-25.633125 21.08875 -24.82875 20.5525 -24 20 C-24 18.68 -24 17.36 -24 16 C-23.319375 16.268125 -22.63875 16.53625 -21.9375 16.8125 C-17.99523589 17.06413388 -16.52378953 15.5481835 -13.55078125 13.12890625 C-12 12 -12 12 -10 12 C-9.814375 11.13375 -9.814375 11.13375 -9.625 10.25 C-8.05982906 4.61538462 -8.05982906 4.61538462 -5.0625 2.875 C-4.381875 2.58625 -3.70125 2.2975 -3 2 C-2.01 1.34 -1.02 0.68 0 0 Z " fill="#8947DB" transform="translate(353,265)"/><path d="M0 0 C-0.99 1.32 -1.98 2.64 -3 4 C-2.01 4 -1.02 4 0 4 C0 4.66 0 5.32 0 6 C-0.88751953 5.91298828 -0.88751953 5.91298828 -1.79296875 5.82421875 C-7.17417878 5.45430884 -7.17417878 5.45430884 -11.625 8.25 C-12.40875 9.1575 -13.1925 10.065 -14 11 C-15.75 12.08203125 -15.75 12.08203125 -17.625 13.0625 C-20.7425688 14.85221542 -22.29804889 15.8964421 -24 19 C-24 19.99 -24 20.98 -24 22 C-24.99 22.33 -25.98 22.66 -27 23 C-27 22.34 -27 21.68 -27 21 C-30.62793998 22.86566488 -30.62793998 22.86566488 -33 26 C-32.01 26.33 -31.02 26.66 -30 27 C-30.33 27.66 -30.66 28.32 -31 29 C-26.24414765 29.80950678 -21.83784985 30.05060533 -17.015625 29.83984375 C-15 30 -15 30 -12 32 C-11.48828125 34.49609375 -11.48828125 34.49609375 -11.3125 37.4375 C-11.24675781 38.40558594 -11.18101562 39.37367188 -11.11328125 40.37109375 C-11.0324888 42.24603587 -11 44.12331799 -11 46 C-9.9790625 45.7525 -9.9790625 45.7525 -8.9375 45.5 C-5.5835178 44.92910941 -2.39610195 44.93340977 1 45 C-1.81800349 47.81800349 -5.17637363 48.35239481 -9 49 C-10.65 49 -12.3 49 -14 49 C-14 43.72 -14 38.44 -14 33 C-19.04180385 33.19675832 -19.04180385 33.19675832 -24.08081055 33.45043945 C-28.18527399 33.53087843 -29.6316962 33.28433817 -33.015625 30.671875 C-35 28 -35 28 -35.0625 24.9375 C-33.33208317 20.1534064 -29.65372039 17.61241642 -25.62890625 14.6875 C-24.80712891 14.08679688 -23.98535156 13.48609375 -23.13867188 12.8671875 C-22.28853516 12.25101563 -21.43839844 11.63484375 -20.5625 11 C-18.87561664 9.77177419 -17.18939944 8.54263285 -15.50390625 7.3125 C-14.71749756 6.73910889 -13.93108887 6.16571777 -13.12084961 5.57495117 C-11.39646613 4.29441729 -9.71129092 2.96121208 -8.0390625 1.61328125 C-5.23836466 -0.60259654 -3.29560358 -1.64780179 0 0 Z " fill="#50B2EA" transform="translate(183,194)"/><path d="M0 0 C3.33388318 0.16951948 4.94441987 0.43192871 7.6875 2.1875 C3.21160147 5.06486334 -1.13333203 6.87230747 -6.1875 8.5625 C-12.31482538 10.69148594 -17.22544874 13.1884308 -22.3125 17.1875 C-23.03308594 17.7340625 -23.75367188 18.280625 -24.49609375 18.84375 C-29.92632463 23.22778961 -33.49909536 27.53947348 -34.72265625 34.53125 C-35.15930939 41.60727007 -32.5856566 47.03864153 -29.3125 53.1875 C-33.36856165 52.71949289 -36.77838679 52.30796792 -40.3125 50.1875 C-40.3125 49.8575 -40.3125 49.5275 -40.3125 49.1875 C-38.3325 49.1875 -36.3525 49.1875 -34.3125 49.1875 C-34.62960938 48.54425781 -34.94671875 47.90101563 -35.2734375 47.23828125 C-36.62688298 43.26444321 -36.76970161 39.54548921 -36.9375 35.375 C-36.99550781 34.19260742 -36.99550781 34.19260742 -37.0546875 32.98632812 C-37.14838844 31.0537462 -37.23150779 29.12065624 -37.3125 27.1875 C-37.9725 27.5175 -38.6325 27.8475 -39.3125 28.1875 C-37.861546 24.36225764 -35.93068068 22.99659034 -32.3125 21.1875 C-31.6525 21.1875 -30.9925 21.1875 -30.3125 21.1875 C-29.9825 18.8775 -29.6525 16.5675 -29.3125 14.1875 C-25.8475 13.6925 -25.8475 13.6925 -22.3125 13.1875 C-21.9825 12.1975 -21.6525 11.2075 -21.3125 10.1875 C-19.375 9.4375 -19.375 9.4375 -17.3125 9.1875 C-16.6525 9.5175 -15.9925 9.8475 -15.3125 10.1875 C-15.3125 9.5275 -15.3125 8.8675 -15.3125 8.1875 C-14.60222656 8.01734375 -13.89195312 7.8471875 -13.16015625 7.671875 C-12.24105469 7.42953125 -11.32195312 7.1871875 -10.375 6.9375 C-9.45847656 6.70546875 -8.54195312 6.4734375 -7.59765625 6.234375 C-6.84355469 5.88890625 -6.08945313 5.5434375 -5.3125 5.1875 C-4.49064487 3.19344776 -4.49064487 3.19344776 -4.3125 1.1875 C-3.3125 0.1875 -3.3125 0.1875 0 0 Z " fill="#399CEC" transform="translate(205.3125,279.8125)"/><path d="M0 0 C-1.66666667 1 -3.33333333 2 -5 3 C-5.804375 3.495 -6.60875 3.99 -7.4375 4.5 C-10 6 -10 6 -13 7.4375 C-18.53924985 10.25258948 -18.53924985 10.25258948 -21.8125 15.25 C-21.9053125 16.11625 -21.9053125 16.11625 -22 17 C-23.65 16.67 -25.3 16.34 -27 16 C-27.33 17.65 -27.66 19.3 -28 21 C-28.99 21.33 -29.98 21.66 -31 22 C-31.33 22.99 -31.66 23.98 -32 25 C-31.01 25.33 -30.02 25.66 -29 26 C-29.66 27.32 -30.32 28.64 -31 30 C-31.99 29.67 -32.98 29.34 -34 29 C-34.33 28.34 -34.66 27.68 -35 27 C-35.33730842 28.43657245 -35.66969591 29.87430093 -36 31.3125 C-36.185625 32.11300781 -36.37125 32.91351563 -36.5625 33.73828125 C-37.09495823 36.10695938 -37.09495823 36.10695938 -37 39 C-37.27650391 40.16595703 -37.27650391 40.16595703 -37.55859375 41.35546875 C-38.05458204 44.32700923 -37.7255707 46.38718807 -37.0625 49.3125 C-36.86785156 50.19550781 -36.67320312 51.07851563 -36.47265625 51.98828125 C-36.31667969 52.65214844 -36.16070312 53.31601562 -36 54 C-40.06137795 49.93862205 -40.31309855 44.70291943 -40.375 39.1875 C-40.26199235 32.85907133 -39.3734879 28.34723007 -36 23 C-35.53722656 22.26394531 -35.07445312 21.52789062 -34.59765625 20.76953125 C-28.9292263 12.71731168 -11.03719786 -4.40426645 0 0 Z " fill="#69CCF5" transform="translate(172,254)"/><path d="M0 0 C4.95 0 9.9 0 15 0 C15 4.62 15 9.24 15 14 C10.05 14 5.1 14 0 14 C0 9.38 0 4.76 0 0 Z " fill="#5480DF" transform="translate(231,218)"/><path d="M0 0 C4.95 0 9.9 0 15 0 C15 4.62 15 9.24 15 14 C10.05 14 5.1 14 0 14 C0 9.38 0 4.76 0 0 Z " fill="#427CEE" transform="translate(231,199)"/><path d="M0 0 C4.62 0 9.24 0 14 0 C14 4.62 14 9.24 14 14 C9.38 14 4.76 14 0 14 C0 9.38 0 4.76 0 0 Z " fill="#5B6AE1" transform="translate(251,218)"/><path d="M0 0 C4.62 0 9.24 0 14 0 C14 4.62 14 9.24 14 14 C9.38 14 4.76 14 0 14 C0 9.38 0 4.76 0 0 Z " fill="#6068E0" transform="translate(251,199)"/><path d="M0 0 C0.99 0.33 1.98 0.66 3 1 C3.03125 3.2109375 3.03125 3.2109375 2 6 C0.33984375 7.10253906 0.33984375 7.10253906 -1.78125 8.1640625 C-6.90665466 10.77430781 -11.59049836 13.23394571 -15 18 C-17.44523236 26.69445465 -16.6937889 36.08067272 -16 45 C-17.98 45 -19.96 45 -22 45 C-19.125 38.125 -19.125 38.125 -18 37 C-17.953107 35.41736123 -17.96253515 33.83289002 -18 32.25 C-18.04088324 28.68293772 -17.92566551 25.47124567 -17 22 C-17.99 21.67 -18.98 21.34 -20 21 C-20 19.02 -20 17.04 -20 15 C-19.34 15 -18.68 15 -18 15 C-17.67 14.01 -17.34 13.02 -17 12 C-14.4375 10.8125 -14.4375 10.8125 -12 10 C-12 9.34 -12 8.68 -12 8 C-11.01 8 -10.02 8 -9 8 C-9 8.66 -9 9.32 -9 10 C-8.34 9.67 -7.68 9.34 -7 9 C-6.34786708 6.97536745 -6.34786708 6.97536745 -6 5 C-5.34 5 -4.68 5 -4 5 C-3.67 4.01 -3.34 3.02 -3 2 C-2.01 1.34 -1.02 0.68 0 0 Z " fill="#3C94F4" transform="translate(206,194)"/><path d="M0 0 C2.94079548 1.37964261 5.48058368 2.97503924 8.08984375 4.90625 C8.86779297 5.48036621 9.64574219 6.05448242 10.44726562 6.64599609 C11.26904297 7.25781738 12.09082031 7.86963867 12.9375 8.5 C13.78634766 9.1285791 14.63519531 9.7571582 15.50976562 10.40478516 C21.40677363 14.78290067 27.24251005 19.23343207 33.04296875 23.73828125 C36.98223947 26.75127695 41.0048867 29.63541896 45.05078125 32.50390625 C45.69402344 32.99761719 46.33726562 33.49132812 47 34 C47 34.33 47 34.66 47 35 C44.625 35.1875 44.625 35.1875 42 35 C41.34 34.01 40.68 33.02 40 32 C37.0821948 30.57850516 35.26795703 30 32 30 C32 28.35 32 26.7 32 25 C31.34 25 30.68 25 30 25 C30 24.34 30 23.68 30 23 C28.35 23.33 26.7 23.66 25 24 C25 23.01 25 22.02 25 21 C24.34 21 23.68 21 23 21 C22.67 21.66 22.34 22.32 22 23 C21.01 21.02 20.02 19.04 19 17 C18.01 17 17.02 17 16 17 C16 15.68 16 14.36 16 13 C14.68 12.67 13.36 12.34 12 12 C12 12.66 12 13.32 12 14 C11.34 14 10.68 14 10 14 C10 13.34 10 12.68 10 12 C9.34 11.67 8.68 11.34 8 11 C7.855625 10.34 7.71125 9.68 7.5625 9 C7.376875 8.34 7.19125 7.68 7 7 C6.01 6.67 5.02 6.34 4 6 C3.01 7.485 3.01 7.485 2 9 C2 8.34 2 7.68 2 7 C1.34 7 0.68 7 0 7 C0 4.69 0 2.38 0 0 Z " fill="#8160E3" transform="translate(272,161)"/><path d="M0 0 C4.98697688 1.87361188 8.99899938 5.46278971 13.08984375 8.78515625 C14.81730736 10.12069532 16.54632347 11.45423028 18.27734375 12.78515625 C19.54959588 13.78335056 20.8210097 14.78262071 22.08984375 15.78515625 C21.09984375 16.11515625 20.10984375 16.44515625 19.08984375 16.78515625 C16.90234375 15.34765625 16.90234375 15.34765625 15.08984375 13.78515625 C14.75984375 14.11515625 14.42984375 14.44515625 14.08984375 14.78515625 C11.65234375 14.97265625 11.65234375 14.97265625 9.08984375 14.78515625 C6.52438435 12.21969685 6.54938288 10.30828957 6.08984375 6.78515625 C2.34246002 5.82154329 -0.16109888 5.99588101 -3.91015625 6.78515625 C-4.90015625 6.45515625 -5.89015625 6.12515625 -6.91015625 5.78515625 C-8.23015625 5.78515625 -9.55015625 5.78515625 -10.91015625 5.78515625 C-10.58015625 7.43515625 -10.25015625 9.08515625 -9.91015625 10.78515625 C-11.56015625 10.45515625 -13.21015625 10.12515625 -14.91015625 9.78515625 C-14.91015625 10.44515625 -14.91015625 11.10515625 -14.91015625 11.78515625 C-15.67328125 12.07390625 -16.43640625 12.36265625 -17.22265625 12.66015625 C-20.06044933 13.74784638 -20.06044933 13.74784638 -22.91015625 15.78515625 C-23.90015625 15.45515625 -24.89015625 15.12515625 -25.91015625 14.78515625 C-25.38808594 14.44484375 -24.86601562 14.10453125 -24.328125 13.75390625 C-23.59207031 13.26921875 -22.85601562 12.78453125 -22.09765625 12.28515625 C-21.2778125 11.74632812 -20.45796875 11.2075 -19.61328125 10.65234375 C-17.74739267 9.36347852 -15.92561172 8.00920167 -14.14453125 6.60546875 C-5.01097604 -0.56360671 -5.01097604 -0.56360671 0 0 Z " fill="#6F72E8" transform="translate(249.91015625,144.21484375)"/><path d="M0 0 C1.0326802 2.78823655 1.04509293 3.8677274 0.0625 6.75 C-0.288125 7.4925 -0.63875 8.235 -1 9 C-0.34 9.33 0.32 9.66 1 10 C0.34 10 -0.32 10 -1 10 C-0.855625 11.27875 -0.71125 12.5575 -0.5625 13.875 C-0.48128906 14.59429687 -0.40007812 15.31359375 -0.31640625 16.0546875 C-0.08707039 18.07404316 -0.08707039 18.07404316 1 20 C0.67 20.66 0.34 21.32 0 22 C2.97 22 5.94 22 9 22 C9.33 23.98 9.66 25.96 10 28 C4.80151475 27.4041262 0.31163599 26.87599719 -3.5625 23.125 C-7.04551625 18.65959456 -7.39596123 14.74860768 -7.359375 9.1875 C-6.78096728 5.66675736 -4.71340921 4.13196438 -2 2 C-1.34 1.34 -0.68 0.68 0 0 Z " fill="#0D71D6" transform="translate(191,307)"/><path d="M0 0 C0 0.66 0 1.32 0 2 C1.093125 2.268125 2.18625 2.53625 3.3125 2.8125 C8.22916667 4.39583333 8.22916667 4.39583333 10 7 C10 7.99 10 8.98 10 10 C12.64 9.67 15.28 9.34 18 9 C18.66 11.97 19.32 14.94 20 18 C23.465 17.505 23.465 17.505 27 17 C27 17.66 27 18.32 27 19 C26.01 19 25.02 19 24 19 C24 19.66 24 20.32 24 21 C25.98 21.66 27.96 22.32 30 23 C30 23.99 30 24.98 30 26 C31.98 25.67 33.96 25.34 36 25 C35.34 26.65 34.68 28.3 34 30 C28.0844782 26.23974583 22.48968571 22.13092964 16.96044922 17.83032227 C12.48720077 14.35585916 7.9360415 11.00205094 3.33984375 7.69140625 C1.83570006 6.60410372 0.3647741 5.46843526 -1.05859375 4.27734375 C-3.16960899 2.63356842 -3.16960899 2.63356842 -7 3 C-7 2.34 -7 1.68 -7 1 C-2.25 0 -2.25 0 0 0 Z " fill="#6F77E1" transform="translate(253,167)"/><path d="M0 0 C0.33 0 0.66 0 1 0 C1.56891054 4.83573957 -0.11578192 7.20931338 -3 11 C-3.5775 11.53625 -4.155 12.0725 -4.75 12.625 C-6.44844853 14.18358362 -6.44844853 14.18358362 -6 18 C-8 20.25 -8 20.25 -10 22 C-10.66 21.67 -11.32 21.34 -12 21 C-11.67 20.34 -11.34 19.68 -11 19 C-12.62741744 19.78668518 -14.25186131 20.5795241 -15.875 21.375 C-16.77992188 21.81585938 -17.68484375 22.25671875 -18.6171875 22.7109375 C-21.09534472 23.90502699 -21.09534472 23.90502699 -23 26 C-23.99 26 -24.98 26 -26 26 C-27.35368596 27.31266518 -28.68799596 28.64567325 -30 30 C-30.66 30 -31.32 30 -32 30 C-32 29.34 -32 28.68 -32 28 C-32.9075 28.350625 -33.815 28.70125 -34.75 29.0625 C-37.87758436 29.96468779 -39.05208081 30.13381507 -42 29 C-39.48448077 26.48448077 -37.54839035 26.18589089 -34.125 25.25 C-21.03165539 21.35386095 -9.4971027 15.67505466 -2 4 C-1.31225595 2.67741528 -0.63892701 1.34684613 0 0 Z " fill="#C579E4" transform="translate(342,216)"/><path d="M0 0 C0.625 1.8125 0.625 1.8125 1 4 C0.01 5.485 0.01 5.485 -1 7 C1.64 7 4.28 7 7 7 C7.2475 7.598125 7.495 8.19625 7.75 8.8125 C9.19192497 11.33586869 10.52549626 12.50030076 13 14 C13.99 14 14.98 14 16 14 C17.25 20.625 17.25 20.625 15 24 C14.85778935 26.60245498 14.81197068 29.09117684 14.875 31.6875 C14.88402344 32.38939453 14.89304687 33.09128906 14.90234375 33.81445312 C14.92586296 35.54311525 14.96173287 37.27160145 15 39 C14.34 39 13.68 39 13 39 C13 32.07 13 25.14 13 18 C11.68 17.34 10.36 16.68 9 16 C6.21972957 14.14002564 3.55587407 12.12486491 0.875 10.125 C0.14667969 9.59519531 -0.58164062 9.06539062 -1.33203125 8.51953125 C-2.02941406 8.00003906 -2.72679687 7.48054687 -3.4453125 6.9453125 C-4.07969238 6.47625488 -4.71407227 6.00719727 -5.36767578 5.52392578 C-7.17815832 3.83367271 -8.03092456 2.26239268 -9 0 C-5.52176885 -1.15941038 -3.54104422 -0.70820884 0 0 Z " fill="#7E59C8" transform="translate(295,194)"/><path d="M0 0 C0.33 0 0.66 0 1 0 C1.0270817 2.72923388 1.04687847 5.45819637 1.0625 8.1875 C1.07087891 8.95642578 1.07925781 9.72535156 1.08789062 10.51757812 C1.10491934 14.48526789 0.98604115 18.12571234 0 22 C-5.75 21.125 -5.75 21.125 -8 20 C-9.12078166 17.3848428 -9.02405939 16.09405035 -8.3125 13.3125 C-7 11 -7 11 -4.875 10.1875 C-4.25625 10.125625 -3.6375 10.06375 -3 10 C-3.0928125 8.63875 -3.0928125 8.63875 -3.1875 7.25 C-2.98333433 3.71112844 -2.41406917 2.51063194 0 0 Z " fill="#AC48CC" transform="translate(368,219)"/><path d="M0 0 C-0.99 1.32 -1.98 2.64 -3 4 C-2.01 4 -1.02 4 0 4 C0 4.66 0 5.32 0 6 C-0.59167969 5.94199219 -1.18335938 5.88398438 -1.79296875 5.82421875 C-7.17417878 5.45430884 -7.17417878 5.45430884 -11.625 8.25 C-12.40875 9.1575 -13.1925 10.065 -14 11 C-15.75 12.08203125 -15.75 12.08203125 -17.625 13.0625 C-20.7425688 14.85221542 -22.29804889 15.8964421 -24 19 C-24 19.99 -24 20.98 -24 22 C-24.99 22.33 -25.98 22.66 -27 23 C-27 22.34 -27 21.68 -27 21 C-28.65 21.66 -30.3 22.32 -32 23 C-32 22.34 -32 21.68 -32 21 C-31.34 21 -30.68 21 -30 21 C-30 20.01 -30 19.02 -30 18 C-28.33520508 16.43774414 -28.33520508 16.43774414 -26.01953125 14.78515625 C-25.18486328 14.18123047 -24.35019531 13.57730469 -23.49023438 12.95507812 C-22.60658203 12.33052734 -21.72292969 11.70597656 -20.8125 11.0625 C-19.0892722 9.82501426 -17.36660019 8.58675413 -15.64453125 7.34765625 C-14.42721313 6.47814331 -14.42721313 6.47814331 -13.18530273 5.59106445 C-11.42856218 4.31202544 -9.71768607 2.97011008 -8.0234375 1.609375 C-5.23221233 -0.61067282 -3.2893392 -1.6446696 0 0 Z " fill="#4AA6EC" transform="translate(183,194)"/><path d="M0 0 C3.33388318 0.16951948 4.94441987 0.43192871 7.6875 2.1875 C3.19833197 5.07339373 -1.18859705 6.90705872 -6.25 8.625 C-11.25718352 10.33658502 -15.35207241 12.26379176 -19.69140625 15.25 C-21.93781726 16.54912926 -23.78229231 16.58284495 -26.3125 16.1875 C-25.673125 15.754375 -25.03375 15.32125 -24.375 14.875 C-22.04503997 13.27510823 -22.04503997 13.27510823 -21.3125 10.1875 C-19.375 9.4375 -19.375 9.4375 -17.3125 9.1875 C-16.6525 9.5175 -15.9925 9.8475 -15.3125 10.1875 C-15.3125 9.5275 -15.3125 8.8675 -15.3125 8.1875 C-14.60222656 8.01734375 -13.89195312 7.8471875 -13.16015625 7.671875 C-12.24105469 7.42953125 -11.32195312 7.1871875 -10.375 6.9375 C-9.45847656 6.70546875 -8.54195312 6.4734375 -7.59765625 6.234375 C-6.84355469 5.88890625 -6.08945313 5.5434375 -5.3125 5.1875 C-4.49064487 3.19344776 -4.49064487 3.19344776 -4.3125 1.1875 C-3.3125 0.1875 -3.3125 0.1875 0 0 Z " fill="#398DEA" transform="translate(205.3125,279.8125)"/><path d="M0 0 C0.66 0.33 1.32 0.66 2 1 C0.39484104 3.53446152 -0.51341343 4.82073126 -3.375 5.875 C-6.34294922 7.14697824 -7.60372082 8.7590672 -9.53515625 11.2890625 C-11.81817451 13.95562783 -14.57211878 16.03115326 -17.328125 18.19140625 C-19.39110324 20.42308598 -19.49898276 22.05008543 -20 25 C-22.4375 27.8125 -22.4375 27.8125 -25 30 C-25.66 30 -26.32 30 -27 30 C-27.36666667 24.5 -27.36666667 24.5 -25.625 22.125 C-24 21 -24 21 -22 21 C-21.34 19.68 -20.68 18.36 -20 17 C-19.34 17 -18.68 17 -18 17 C-17.7525 16.443125 -17.505 15.88625 -17.25 15.3125 C-15.75571133 12.54806595 -14.12772489 10.31546532 -12 8 C-9.8125 7.375 -9.8125 7.375 -8 7 C-7.67 6.01 -7.34 5.02 -7 4 C-6.34 4 -5.68 4 -5 4 C-5 3.34 -5 2.68 -5 2 C-2.625 0.9375 -2.625 0.9375 0 0 Z " fill="#36BAF7" transform="translate(162,275)"/><path d="M0 0 C1 3 1 3 0.22265625 5.04296875 C-0.16019531 5.75066406 -0.54304687 6.45835937 -0.9375 7.1875 C-1.31777344 7.90292969 -1.69804687 8.61835938 -2.08984375 9.35546875 C-2.39019531 9.89816406 -2.69054687 10.44085938 -3 11 C-2.01 11.33 -1.02 11.66 0 12 C-0.66 13.32 -1.32 14.64 -2 16 C-2.99 15.67 -3.98 15.34 -5 15 C-5.33 14.34 -5.66 13.68 -6 13 C-6.33730842 14.43657245 -6.66969591 15.87430093 -7 17.3125 C-7.185625 18.11300781 -7.37125 18.91351563 -7.5625 19.73828125 C-8.09495823 22.10695938 -8.09495823 22.10695938 -8 25 C-8.27650391 26.16595703 -8.27650391 26.16595703 -8.55859375 27.35546875 C-9.05458204 30.32700923 -8.7255707 32.38718807 -8.0625 35.3125 C-7.86785156 36.19550781 -7.67320312 37.07851563 -7.47265625 37.98828125 C-7.31667969 38.65214844 -7.16070312 39.31601562 -7 40 C-11.06137795 35.93862205 -11.31309855 30.70291943 -11.375 25.1875 C-11.18222741 14.39223518 -6.80078823 8.08071186 0 0 Z " fill="#6CD4F1" transform="translate(143,268)"/><path d="M0 0 C1.09957031 0.00451172 2.19914062 0.00902344 3.33203125 0.01367188 C6.01308003 0.02532861 8.69400932 0.04168983 11.375 0.0625 C11.375 0.3925 11.375 0.7225 11.375 1.0625 C10.73997559 1.08231934 10.10495117 1.10213867 9.45068359 1.12255859 C6.55006674 1.21831122 3.65012095 1.32778546 0.75 1.4375 C-0.74853516 1.48390625 -0.74853516 1.48390625 -2.27734375 1.53125 C-7.45866901 1.73713047 -11.73263227 2.21092698 -16.625 4.0625 C-17.945 4.0625 -19.265 4.0625 -20.625 4.0625 C-20.955 5.7125 -21.285 7.3625 -21.625 9.0625 C-22.615 8.4025 -23.605 7.7425 -24.625 7.0625 C-23.635 6.7325 -22.645 6.4025 -21.625 6.0625 C-21.955 5.4025 -22.285 4.7425 -22.625 4.0625 C-28.80690327 5.16894386 -28.80690327 5.16894386 -34.4375 7.8125 C-35.159375 8.225 -35.88125 8.6375 -36.625 9.0625 C-38.9375 8.25 -38.9375 8.25 -40.625 7.0625 C-37.87840323 4.31590323 -34.7900652 3.88594867 -31.125 3 C-30.4546875 2.82662109 -29.784375 2.65324219 -29.09375 2.47460938 C-19.45720446 0.09284954 -9.88410776 -0.07806403 0 0 Z " fill="#7CAAEF" transform="translate(212.625,245.9375)"/><path d="M0 0 C-0.66 0.33 -1.32 0.66 -2 1 C-2 1.66 -2 2.32 -2 3 C-5.7488238 4.10818578 -9.49927169 5.21077898 -13.25 6.3125 C-14.81621094 6.7755957 -14.81621094 6.7755957 -16.4140625 7.24804688 C-23.56881772 9.34589177 -30.75317054 11.24681347 -38 13 C-38.33 12.01 -38.66 11.02 -39 10 C-38.28972656 9.86722656 -37.57945312 9.73445313 -36.84765625 9.59765625 C-35.92855469 9.42105469 -35.00945312 9.24445313 -34.0625 9.0625 C-33.14597656 8.88847656 -32.22945313 8.71445312 -31.28515625 8.53515625 C-29.04710156 8.22285012 -29.04710156 8.22285012 -28 7 C-26.48530552 6.76807135 -24.96245438 6.58784762 -23.4375 6.4375 C-22.61121094 6.35371094 -21.78492188 6.26992188 -20.93359375 6.18359375 C-19.97646484 6.09271484 -19.97646484 6.09271484 -19 6 C-19.33 4.68 -19.66 3.36 -20 2 C-15.25 1.875 -15.25 1.875 -13 3 C-11.31050386 2.39351421 -9.64363134 1.72159424 -8 1 C-5.07175348 0.02391783 -3.04386724 -0.08226668 0 0 Z " fill="#654EDE" transform="translate(302,296)"/><path d="M0 0 C7.03128878 0.43384548 13.329015 1.74321997 20 4 C20 5.65 20 7.3 20 9 C21.32 9.33 22.64 9.66 24 10 C22.68 10.33 21.36 10.66 20 11 C20.33 12.65 20.66 14.3 21 16 C20.278125 15.2575 19.55625 14.515 18.8125 13.75 C14.22925993 9.26860971 9.63241639 6.1270231 3.98828125 3.1484375 C2 2 2 2 0 0 Z " fill="#D570E6" transform="translate(320,179)"/><path d="M0 0 C0.66 0.33 1.32 0.66 2 1 C0.02 1.99 0.02 1.99 -2 3 C-2 4.32 -2 5.64 -2 7 C-2.78375 7.226875 -3.5675 7.45375 -4.375 7.6875 C-7.21875 8.78125 -7.21875 8.78125 -8.3125 11.625 C-8.6528125 12.800625 -8.6528125 12.800625 -9 14 C-11.31 14 -13.62 14 -16 14 C-16.33 15.32 -16.66 16.64 -17 18 C-17.66 18 -18.32 18 -19 18 C-19 18.99 -19 19.98 -19 21 C-20.98 21 -22.96 21 -25 21 C-23.51697598 16.55092795 -19.91714499 14.25420608 -16 12 C-15.34 12 -14.68 12 -14 12 C-14 11.34 -14 10.68 -14 10 C-8.58823529 6 -8.58823529 6 -6 6 C-6 5.34 -6 4.68 -6 4 C-4.03852126 2.61061923 -2.03833424 1.2739589 0 0 Z " fill="#5F8BE8" transform="translate(222,161)"/><path d="M0 0 C0 0.66 0 1.32 0 2 C-6.35369953 5.86985587 -12.81348955 8.84618926 -19.8125 11.3125 C-20.52913818 11.56660645 -21.24577637 11.82071289 -21.98413086 12.08251953 C-25.97068018 13.44740119 -29.80513894 14.44024617 -34 15 C-34 14.34 -34 13.68 -34 13 C-30.37 11.68 -26.74 10.36 -23 9 C-23 8.01 -23 7.02 -23 6 C-19.98968256 5.06576355 -19.13349732 4.95550089 -16 6 C-15.67 5.34 -15.34 4.68 -15 4 C-14.34 4 -13.68 4 -13 4 C-13 4.66 -13 5.32 -13 6 C-12.34 6 -11.68 6 -11 6 C-10.67 5.34 -10.34 4.68 -10 4 C-4.70588235 0 -4.70588235 0 0 0 Z " fill="#774DD7" transform="translate(334,284)"/><path d="M0 0 C4.95 0 9.9 0 15 0 C15 4.62 15 9.24 15 14 C10.05 14 5.1 14 0 14 C0 9.38 0 4.76 0 0 Z M2 1 C2 4.96 2 8.92 2 13 C7.445 12.505 7.445 12.505 13 12 C13 8.37 13 4.74 13 1 C9.37 1 5.74 1 2 1 Z " fill="#597ED8" transform="translate(231,199)"/><path d="M0 0 C-0.61875 0.4125 -1.2375 0.825 -1.875 1.25 C-4.06768281 3.05573879 -4.92788417 4.4090534 -6 7 C-6 6.34 -6 5.68 -6 5 C-7.90312564 5.95156282 -9.80592876 6.90377658 -11.70703125 7.859375 C-13.17736418 8.59078423 -14.65353556 9.31063847 -16.13671875 10.015625 C-20.18561221 11.95909386 -23.58992594 14.01618519 -27 17 C-23.85344662 9.60312844 -16.07395311 4.46922141 -9.15234375 0.83203125 C-5.91820218 -0.41819045 -3.42592647 -0.36446026 0 0 Z " fill="#396FD5" transform="translate(213,295)"/><path d="M0 0 C0.99 0.66 1.98 1.32 3 2 C3 3.32 3 4.64 3 6 C2.34 6 1.68 6 1 6 C0.89429688 6.58265625 0.78859375 7.1653125 0.6796875 7.765625 C-0.58901979 11.93631793 -3.35337418 14.70584892 -7 17 C-10.74454289 17.57801669 -14.24482853 17.42780434 -18 17 C-18 16.67 -18 16.34 -18 16 C-16.39125 15.9071875 -16.39125 15.9071875 -14.75 15.8125 C-10.90195811 15.31875917 -10.90195811 15.31875917 -8.5 12.625 C-8.005 11.75875 -7.51 10.8925 -7 10 C-7.33 9.01 -7.66 8.02 -8 7 C-5.03 7.495 -5.03 7.495 -2 8 C-1.34 5.36 -0.68 2.72 0 0 Z " fill="#2770D3" transform="translate(224,321)"/><path d="M0 0 C2.77438124 1.31220734 5.20790172 2.77482369 7.671875 4.6015625 C8.33574219 5.09140625 8.99960937 5.58125 9.68359375 6.0859375 C10.36550781 6.59382812 11.04742187 7.10171875 11.75 7.625 C12.44738281 8.140625 13.14476562 8.65625 13.86328125 9.1875 C15.57755267 10.45559119 17.28905156 11.7274289 19 13 C18.67 14.65 18.34 16.3 18 18 C17.34 17.67 16.68 17.34 16 17 C16 15.68 16 14.36 16 13 C14.68 12.67 13.36 12.34 12 12 C12 12.66 12 13.32 12 14 C11.34 14 10.68 14 10 14 C10 13.34 10 12.68 10 12 C9.34 11.67 8.68 11.34 8 11 C7.855625 10.34 7.71125 9.68 7.5625 9 C7.376875 8.34 7.19125 7.68 7 7 C6.01 6.67 5.02 6.34 4 6 C3.01 7.485 3.01 7.485 2 9 C2 8.34 2 7.68 2 7 C1.34 7 0.68 7 0 7 C0 4.69 0 2.38 0 0 Z " fill="#7769E4" transform="translate(272,161)"/><path d="M0 0 C1.0326802 2.78823655 1.04509293 3.8677274 0.0625 6.75 C-0.288125 7.4925 -0.63875 8.235 -1 9 C-0.34 9.33 0.32 9.66 1 10 C0.34 10 -0.32 10 -1 10 C-0.67 11.98 -0.34 13.96 0 16 C-0.99 15.67 -1.98 15.34 -3 15 C-3.33 14.01 -3.66 13.02 -4 12 C-4 14.97 -4 17.94 -4 21 C-6 20 -6 20 -6.6015625 18.21484375 C-7.28300334 14.42683437 -7.62729804 10.81833593 -7 7 C-4.625 4.0625 -4.625 4.0625 -2 2 C-1.34 1.34 -0.68 0.68 0 0 Z " fill="#136AD7" transform="translate(191,307)"/><path d="M0 0 C2.31 0 4.62 0 7 0 C7.33 1.65 7.66 3.3 8 5 C11.465 4.505 11.465 4.505 15 4 C15 4.66 15 5.32 15 6 C14.01 6 13.02 6 12 6 C12 6.66 12 7.32 12 8 C13.98 8.66 15.96 9.32 18 10 C18 10.99 18 11.98 18 13 C19.98 12.67 21.96 12.34 24 12 C23.34 13.65 22.68 15.3 22 17 C16.45457569 13.4750016 11.15227932 9.67994248 5.9375 5.6875 C5.35331299 5.24293457 4.76912598 4.79836914 4.16723633 4.34033203 C2.75810216 3.2523806 1.37613174 2.12940642 0 1 C0 0.67 0 0.34 0 0 Z " fill="#8171E2" transform="translate(265,180)"/><path d="M0 0 C-3.98057377 3.10874781 -6.93797248 5.17913067 -12 6 C-12.60585938 6.47824219 -13.21171875 6.95648438 -13.8359375 7.44921875 C-16.26463945 9.18964235 -18.01483498 9.6606097 -20.9375 10.1875 C-21.77152344 10.34605469 -22.60554688 10.50460937 -23.46484375 10.66796875 C-26.00815129 11.00106758 -28.43817447 11.05957734 -31 11 C-31 11.66 -31 12.32 -31 13 C-33.97 12.505 -33.97 12.505 -37 12 C-37 11.67 -37 11.34 -37 11 C-35.97003906 10.8040625 -34.94007813 10.608125 -33.87890625 10.40625 C-24.74330037 8.53175261 -16.73750674 5.86745642 -8.44750977 1.5546875 C-3.28287106 -1.09429035 -3.28287106 -1.09429035 0 0 Z " fill="#8A44D2" transform="translate(341,261)"/><path d="M0 0 C1.65 0 3.3 0 5 0 C5 3.96 5 7.92 5 12 C2.69 12 0.38 12 -2 12 C-2.36923077 6.46153846 -2.36923077 6.46153846 -0.5 4.125 C-0.005 3.75375 0.49 3.3825 1 3 C0.67 2.01 0.34 1.02 0 0 Z " fill="#4775EF" transform="translate(240,219)"/><path d="M0 0 C0.99 0.33 1.98 0.66 3 1 C2.91798117 3.67767353 2.57513555 5.43022221 0.63720703 7.35009766 C-1.17912711 8.74431513 -3.03439718 10.03936382 -4.9375 11.3125 C-5.58396484 11.76689453 -6.23042969 12.22128906 -6.89648438 12.68945312 C-11.69055451 16 -11.69055451 16 -14 16 C-14 15.34 -14 14.68 -14 14 C-13.34 13.67 -12.68 13.34 -12 13 C-11.34 12.01 -10.68 11.02 -10 10 C-9.01 10.33 -8.02 10.66 -7 11 C-6.67 9.02 -6.34 7.04 -6 5 C-5.34 5 -4.68 5 -4 5 C-3.67 4.01 -3.34 3.02 -3 2 C-2.01 1.34 -1.02 0.68 0 0 Z " fill="#4B8EEE" transform="translate(206,194)"/><path d="M0 0 C0.33 0.66 0.66 1.32 1 2 C1.99 2 2.98 2 4 2 C4 2.66 4 3.32 4 4 C4.66 4.33 5.32 4.66 6 5 C5.67 6.98 5.34 8.96 5 11 C5.99 11.33 6.98 11.66 8 12 C7.67 12.66 7.34 13.32 7 14 C4.75 13.875 4.75 13.875 2 13 C-2.0864745 8.26829268 -2.0864745 8.26829268 -1.8125 4.25 C-1 2 -1 2 0 0 Z " fill="#29B4F4" transform="translate(138,302)"/><path d="M0 0 C11.22 0 22.44 0 34 0 C33.67 0.66 33.34 1.32 33 2 C28.55193341 3.37392018 23.97806245 3.07855055 19.375 3 C13.61036303 2.82927156 13.61036303 2.82927156 8 4 C5.95703125 3.44140625 5.95703125 3.44140625 3.8125 2.5625 C3.09707031 2.27503906 2.38164062 1.98757813 1.64453125 1.69140625 C1.10183594 1.46324219 0.55914062 1.23507812 0 1 C0 0.67 0 0.34 0 0 Z " fill="#6847D1" transform="translate(270,273)"/><path d="M0 0 C2.60283187 0.27655089 3.74468203 0.73127783 5.5625 2.64453125 C9.49891168 8.58123908 14.85977304 16.96657144 13.59765625 24.35546875 C13.40042969 24.89816406 13.20320313 25.44085938 13 26 C12.67 26 12.34 26 12 26 C11.896875 25.236875 11.79375 24.47375 11.6875 23.6875 C11.25899713 20.97660254 11.25899713 20.97660254 9.46875 19.625 C7.50546526 17.45285519 7.68743018 16.18910596 7.8125 13.3125 C7.83957031 12.50425781 7.86664063 11.69601563 7.89453125 10.86328125 C7.92933594 10.24839844 7.96414063 9.63351563 8 9 C7.34 9 6.68 9 6 9 C5.38125 7.576875 5.38125 7.576875 4.75 6.125 C2.9959869 2.99283376 2.29148243 2.13499394 -1 1 C-0.67 0.67 -0.34 0.34 0 0 Z " fill="#DC77DF" transform="translate(355,194)"/><path d="M0 0 C0.33 0 0.66 0 1 0 C1.16834933 1.77067416 1.33461909 3.54154612 1.5 5.3125 C1.5928125 6.29863281 1.685625 7.28476563 1.78125 8.30078125 C2 11 2 11 2 14 C2.680625 13.835 3.36125 13.67 4.0625 13.5 C7.4164822 12.92910941 10.60389805 12.93340977 14 13 C10.64808958 16.35191042 5.8534002 16.96329901 1.23828125 17.0546875 C0.49964844 17.03664062 -0.23898438 17.01859375 -1 17 C-1.02699725 14.72923158 -1.04639453 12.45837179 -1.0625 10.1875 C-1.07990234 8.29064453 -1.07990234 8.29064453 -1.09765625 6.35546875 C-1 3 -1 3 0 0 Z " fill="#3C9DE7" transform="translate(170,226)"/><path d="M0 0 C0.33 0 0.66 0 1 0 C1.56891054 4.83573957 -0.11578192 7.20931338 -3 11 C-3.5775 11.53625 -4.155 12.0725 -4.75 12.625 C-6.44844853 14.18358362 -6.44844853 14.18358362 -6 18 C-8 20.25 -8 20.25 -10 22 C-10.66 21.67 -11.32 21.34 -12 21 C-11.75264516 16.79496779 -11.51686532 14.58671198 -8.6875 11.375 C-7.800625 10.59125 -6.91375 9.8075 -6 9 C-3.54851116 6.12825593 -1.53574788 3.45543273 0 0 Z " fill="#CD70E8" transform="translate(342,216)"/><path d="M0 0 C1.29744141 0.01353516 1.29744141 0.01353516 2.62109375 0.02734375 C3.26175781 0.03894531 3.90242188 0.05054688 4.5625 0.0625 C1.16482245 2.32761837 -1.61383992 2.77717861 -5.5625 3.25 C-6.64325806 3.38124268 -6.64325806 3.38124268 -7.74584961 3.51513672 C-18.60801247 4.61792871 -29.56817464 3.7255354 -40.4375 3.0625 C-40.4375 2.7325 -40.4375 2.4025 -40.4375 2.0625 C-39.62595459 2.03744385 -38.81440918 2.0123877 -37.97827148 1.98657227 C-34.27704284 1.87004183 -30.57603319 1.747575 -26.875 1.625 C-25.59818359 1.58568359 -24.32136719 1.54636719 -23.00585938 1.50585938 C-21.14477539 1.44301758 -21.14477539 1.44301758 -19.24609375 1.37890625 C-18.10970459 1.34224854 -16.97331543 1.30559082 -15.80249023 1.26782227 C-10.48204111 0.94318338 -5.34478728 -0.07321626 0 0 Z " fill="#A78AE0" transform="translate(295.4375,244.9375)"/><path d="M0 0 C4.95 0 9.9 0 15 0 C13.68 0.33 12.36 0.66 11 1 C11 1.99 11 2.98 11 4 C12.32 4.33 13.64 4.66 15 5 C10.05 5 5.1 5 0 5 C0 3.35 0 1.7 0 0 Z " fill="#DBE8FD" transform="translate(231,213)"/><path d="M0 0 C1.32 0 2.64 0 4 0 C4 3.63 4 7.26 4 11 C1.69 10.67 -0.62 10.34 -3 10 C-2.855625 9.443125 -2.71125 8.88625 -2.5625 8.3125 C-2.15978494 6.65689365 -1.8116534 4.987637 -1.5 3.3125 C-1 1 -1 1 0 0 Z " fill="#4974F0" transform="translate(240,200)"/><path d="M0 0 C0 0.33 0 0.66 0 1 C-4.455 1.495 -4.455 1.495 -9 2 C-9 2.99 -9 3.98 -9 5 C-10.32 5 -11.64 5 -13 5 C-12.67 6.65 -12.34 8.3 -12 10 C-13.65 9.67 -15.3 9.34 -17 9 C-17 9.66 -17 10.32 -17 11 C-17.763125 11.28875 -18.52625 11.5775 -19.3125 11.875 C-22.15029308 12.96269013 -22.15029308 12.96269013 -25 15 C-25.99 14.67 -26.98 14.34 -28 14 C-27.47792969 13.6596875 -26.95585937 13.319375 -26.41796875 12.96875 C-25.68191406 12.4840625 -24.94585937 11.999375 -24.1875 11.5 C-23.36765625 10.96117187 -22.5478125 10.42234375 -21.703125 9.8671875 C-19.83723642 8.57832227 -18.01545547 7.22404542 -16.234375 5.8203125 C-10.57773073 1.38032077 -7.27319897 -1.09784135 0 0 Z " fill="#6C86E5" transform="translate(252,145)"/><path d="M0 0 C5.28 0 10.56 0 16 0 C16 5.28 16 10.56 16 16 C17.32 16 18.64 16 20 16 C20 16.66 20 17.32 20 18 C18.02 18 16.04 18 14 18 C14 12.39 14 6.78 14 1 C9.38 1 4.76 1 0 1 C0 0.67 0 0.34 0 0 Z " fill="#CAF0FE" transform="translate(153,227)"/><path d="M0 0 C-2.5 1.5 -2.5 1.5 -5 3 C-5.804375 3.495 -6.60875 3.99 -7.4375 4.5 C-15.125 9 -15.125 9 -18 9 C-17.89453125 7.20703125 -17.89453125 7.20703125 -17 5 C-14.19921875 3.26171875 -14.19921875 3.26171875 -10.6875 1.6875 C-9.53636719 1.15511719 -8.38523438 0.62273437 -7.19921875 0.07421875 C-4.10319398 -0.96535001 -2.94234678 -1.2423242 0 0 Z " fill="#6DBFF2" transform="translate(172,254)"/><path d="M0 0 C0.33 0 0.66 0 1 0 C1 9.24 1 18.48 1 28 C-0.98 28 -2.96 28 -5 28 C-2.125 21.125 -2.125 21.125 -1 20 C-0.95221351 18.52160544 -0.96309002 17.04120608 -1 15.5625 C-1.06057385 10.31529049 -0.62029442 5.20604243 0 0 Z " fill="#428EDB" transform="translate(189,211)"/><path d="M0 0 C0.33 0 0.66 0 1 0 C1.09796875 0.70125 1.1959375 1.4025 1.296875 2.125 C2.29974164 8.48801593 3.82661531 13.39368706 7 19 C2.94393835 18.53199289 -0.46588679 18.12046792 -4 16 C-4 15.67 -4 15.34 -4 15 C-2.02 15 -0.04 15 2 15 C1.67 14.38125 1.34 13.7625 1 13.125 C-0.40387684 8.73788488 -0.15967523 4.56848573 0 0 Z " fill="#499FE2" transform="translate(169,314)"/><path d="M0 0 C1.58367747 0.14204741 3.16693318 0.28880153 4.75 0.4375 C5.63171875 0.51871094 6.5134375 0.59992188 7.421875 0.68359375 C9.69350452 0.96238465 11.79851823 1.38790577 14 2 C14.12375 2.7425 14.2475 3.485 14.375 4.25 C14.9578376 6.81448542 15.78664449 8.69166512 17 11 C16.27554687 10.52949219 15.55109375 10.05898437 14.8046875 9.57421875 C7.59989702 4.93179183 7.59989702 4.93179183 0 1 C0 0.67 0 0.34 0 0 Z " fill="#CC77DE" transform="translate(320,179)"/><path d="M0 0 C-1.74604549 1.4630657 -3.49699453 2.9202808 -5.25 4.375 C-6.22453125 5.18710938 -7.1990625 5.99921875 -8.203125 6.8359375 C-10.4552682 8.57851757 -12.40711386 9.876416 -15 11 C-15 10.01 -15 9.02 -15 8 C-14.01 8 -13.02 8 -12 8 C-12 7.01 -12 6.02 -12 5 C-11.01 5 -10.02 5 -9 5 C-9.33 3.68 -9.66 2.36 -10 1 C-6.16112237 -0.48320272 -3.93795909 -1.22419163 0 0 Z " fill="#5987E3" transform="translate(224,187)"/><path d="M0 0 C0.66 4.29 1.32 8.58 2 13 C0.02 13 -1.96 13 -4 13 C-3.34 12.67 -2.68 12.34 -2 12 C-2.17917969 11.38511719 -2.35835937 10.77023437 -2.54296875 10.13671875 C-2.75566406 9.32847656 -2.96835938 8.52023437 -3.1875 7.6875 C-3.40792969 6.88699219 -3.62835938 6.08648437 -3.85546875 5.26171875 C-4 3 -4 3 -2.61328125 1.20703125 C-1 0 -1 0 0 0 Z " fill="#279EF5" transform="translate(169,316)"/><path d="M0 0 C1.37478516 0.01740234 1.37478516 0.01740234 2.77734375 0.03515625 C3.69644531 0.04417969 4.61554688 0.05320312 5.5625 0.0625 C6.27277344 0.07410156 6.98304688 0.08570313 7.71484375 0.09765625 C7.71484375 0.42765625 7.71484375 0.75765625 7.71484375 1.09765625 C4.78004777 1.96223937 1.84262856 2.81462812 -1.09765625 3.66015625 C-1.93103516 3.90701172 -2.76441406 4.15386719 -3.62304688 4.40820312 C-4.42548828 4.63701172 -5.22792969 4.86582031 -6.0546875 5.1015625 C-6.79307861 5.31627197 -7.53146973 5.53098145 -8.29223633 5.75219727 C-10.28515625 6.09765625 -10.28515625 6.09765625 -13.28515625 5.09765625 C-13.28515625 4.43765625 -13.28515625 3.77765625 -13.28515625 3.09765625 C-12.57488281 2.96488281 -11.86460937 2.83210938 -11.1328125 2.6953125 C-10.21371094 2.51871094 -9.29460937 2.34210938 -8.34765625 2.16015625 C-6.97287109 1.89912109 -6.97287109 1.89912109 -5.5703125 1.6328125 C-2.9858451 1.02756116 -2.65292463 0.11337285 0 0 Z " fill="#5A61D4" transform="translate(276.28515625,302.90234375)"/><path d="M0 0 C-0.66386719 0.4846875 -1.32773438 0.969375 -2.01171875 1.46875 C-7.75951246 5.83203866 -11.58891162 9.63263502 -15 16 C-15.33 14.68 -15.66 13.36 -16 12 C-15.34 12 -14.68 12 -14 12 C-14 11.01 -14 10.02 -14 9 C-13.34 9 -12.68 9 -12 9 C-11.814375 8.071875 -11.814375 8.071875 -11.625 7.125 C-11 5 -11 5 -9 3 C-8.01 3 -7.02 3 -6 3 C-6 2.01 -6 1.02 -6 0 C-3.50907189 -1.24546405 -2.58919267 -0.7767578 0 0 Z " fill="#DDFAFE" transform="translate(151,263)"/><path d="M0 0 C1.8871875 0.0309375 1.8871875 0.0309375 3.8125 0.0625 C4.4725 1.7125 5.1325 3.3625 5.8125 5.0625 C5.090625 4.876875 4.36875 4.69125 3.625 4.5 C0.83424231 3.89432862 0.83424231 3.89432862 -1.8125 4.625 C-4.1875 5.0625 -4.1875 5.0625 -7.1875 3.0625 C-7.1875 2.4025 -7.1875 1.7425 -7.1875 1.0625 C-4.43671116 0.14557039 -2.82801087 -0.04636083 0 0 Z " fill="#6373EB" transform="translate(250.1875,145.9375)"/><path d="M0 0 C1.32 0 2.64 0 4 0 C4 3.96 4 7.92 4 12 C2.68 12 1.36 12 0 12 C0 9.36 0 6.72 0 4 C0.99 3.67 1.98 3.34 3 3 C3 2.34 3 1.68 3 1 C2.01 0.67 1.02 0.34 0 0 Z " fill="#5F61E4" transform="translate(260,219)"/><path d="M0 0 C3.96 0 7.92 0 12 0 C12 1.32 12 2.64 12 4 C15.63 4 19.26 4 23 4 C23 4.33 23 4.66 23 5 C14.42930243 5.53847315 7.86335332 4.4673054 0 1 C0 0.67 0 0.34 0 0 Z " fill="#3D88D3" transform="translate(194,334)"/><path d="M0 0 C0.66 0.33 1.32 0.66 2 1 C-0.29350636 4.62132583 -2.09964786 5.43985914 -6 7 C-8.7464785 8.89905205 -11.3791535 10.9319375 -14 13 C-14.33 12.34 -14.66 11.68 -15 11 C-10.25 7 -10.25 7 -8 7 C-7.67 6.01 -7.34 5.02 -7 4 C-6.34 4 -5.68 4 -5 4 C-5 3.34 -5 2.68 -5 2 C-2.625 0.9375 -2.625 0.9375 0 0 Z " fill="#43BAFA" transform="translate(162,275)"/><path d="M0 0 C3.288638 2.86429761 4.59452899 4.64118669 5 9 C5.24514523 13.57604429 5.00837401 16.8577286 3 21 C2.67 21 2.34 21 2 21 C2.03480469 19.7315625 2.03480469 19.7315625 2.0703125 18.4375 C2.17438066 11.89607279 1.9612306 6.25142254 0 0 Z " fill="#D576E0" transform="translate(341,195)"/><path d="M0 0 C1.65 0 3.3 0 5 0 C4.01 0.33 3.02 0.66 2 1 C2.33 3.97 2.66 6.94 3 10 C4.65 10.33 6.3 10.66 8 11 C8 11.33 8 11.66 8 12 C5.36 12 2.72 12 0 12 C0 8.04 0 4.08 0 0 Z " fill="#566CE3" transform="translate(252,200)"/><path d="M0 0 C-1.60387267 1.1254191 -3.20810916 2.25031972 -4.8125 3.375 C-5.70582031 4.00148438 -6.59914062 4.62796875 -7.51953125 5.2734375 C-9.33267878 6.53550239 -11.16188211 7.77458808 -13 9 C-13 8.01 -13 7.02 -13 6 C-12.34 6 -11.68 6 -11 6 C-11.33 4.68 -11.66 3.36 -12 2 C-11.05125 1.690625 -10.1025 1.38125 -9.125 1.0625 C-3.1875 -0.95625 -3.1875 -0.95625 0 0 Z " fill="#3771D5" transform="translate(238,321)"/><path d="M0 0 C3.33388318 0.16951948 4.94441987 0.43192871 7.6875 2.1875 C4.72571227 3.85860042 2.31678808 4.51432752 -1.0625 4.8125 C-1.86171875 4.88726562 -2.6609375 4.96203125 -3.484375 5.0390625 C-4.38929688 5.11253906 -4.38929688 5.11253906 -5.3125 5.1875 C-4.19474414 0.23743835 -4.19474414 0.23743835 0 0 Z " fill="#317CEA" transform="translate(205.3125,279.8125)"/><path d="M0 0 C0.33 0.66 0.66 1.32 1 2 C-6.60714286 9.60714286 -6.60714286 9.60714286 -11 11 C-11.99 10.67 -12.98 10.34 -14 10 C-12.22970554 8.70759488 -10.45874502 7.41610207 -8.6875 6.125 C-7.70136719 5.40570313 -6.71523437 4.68640625 -5.69921875 3.9453125 C-3.82476885 2.5944065 -1.92247007 1.28164671 0 0 Z " fill="#DCF2FF" transform="translate(205,201)"/><path d="M0 0 C0.99 0.66 1.98 1.32 3 2 C3 3.32 3 4.64 3 6 C2.34 6 1.68 6 1 6 C1 6.99 1 7.98 1 9 C-3.455 9.495 -3.455 9.495 -8 10 C-8 9.01 -8 8.02 -8 7 C-5.03 7.495 -5.03 7.495 -2 8 C-1.34 5.36 -0.68 2.72 0 0 Z " fill="#1D6DE2" transform="translate(224,321)"/><path d="M0 0 C0.92277937 2.76833811 0.99312173 5.12212511 0.875 8 C0.82020554 11.71232441 1.53911335 13.1605154 4 16 C4.72351427 17.98014432 5.40265389 19.97821315 6 22 C5.34 22.33 4.68 22.66 4 23 C-0.0098111 16.26924566 -2.01205197 10.87954752 -1 3 C-0.67 2.01 -0.34 1.02 0 0 Z " fill="#C2EFFE" transform="translate(171,309)"/><path d="M0 0 C0 0.99 0 1.98 0 3 C-0.99 3.33 -1.98 3.66 -3 4 C-3 3.34 -3 2.68 -3 2 C-3.9075 2.350625 -4.815 2.70125 -5.75 3.0625 C-8.87758436 3.96468779 -10.05208081 4.13381507 -13 3 C-9.39091002 -0.60908998 -4.88215348 -0.11353845 0 0 Z " fill="#B57DE7" transform="translate(313,242)"/><path d="M0 0 C0.99 0.33 1.98 0.66 3 1 C1.69088122 2.50295185 0.37761608 4.00229311 -0.9375 5.5 C-1.66839844 6.3353125 -2.39929688 7.170625 -3.15234375 8.03125 C-3.76207031 8.6809375 -4.37179687 9.330625 -5 10 C-5.33 10 -5.66 10 -6 10 C-6.375 7.8125 -6.375 7.8125 -6 5 C-4.17212359 2.80074553 -2.43487461 1.62324974 0 0 Z " fill="#954ED2" transform="translate(353,265)"/><path d="M0 0 C1.34400717 4.03202151 0.39624518 7.11829219 -1 11 C-2.1970614 13.16199302 -3.5114692 15.01529227 -5 17 C-5.66 16.01 -6.32 15.02 -7 14 C-6.375 11.375 -6.375 11.375 -5 9 C-2.875 8.1875 -2.875 8.1875 -1 8 C-1.020625 7.05125 -1.04125 6.1025 -1.0625 5.125 C-1 2 -1 2 0 0 Z " fill="#DA5FEB" transform="translate(366,221)"/><path d="M0 0 C3.96 0.33 7.92 0.66 12 1 C12 1.66 12 2.32 12 3 C7.38 3 2.76 3 -2 3 C-1.34 2.01 -0.68 1.02 0 0 Z " fill="#D0CFFB" transform="translate(257,281)"/><path d="M0 0 C0.66 0 1.32 0 2 0 C2.66 3.3 3.32 6.6 4 10 C2.68 10.33 1.36 10.66 0 11 C0 7.37 0 3.74 0 0 Z " fill="#3B80F2" transform="translate(233,220)"/><path d="M0 0 C0.33 1.32 0.66 2.64 1 4 C-1.66561622 4.98726527 -2.90126985 5.0275526 -5.6875 4.25 C-8 3 -8 3 -9 0 C-5.52176885 -1.15941038 -3.54104422 -0.70820884 0 0 Z " fill="#795EED" transform="translate(295,194)"/><path d="M0 0 C0 0.33 0 0.66 0 1 C-1.5778125 1.433125 -1.5778125 1.433125 -3.1875 1.875 C-6.22818711 2.77225193 -9.08712344 3.76423419 -12 5 C-12.99 4.01 -13.98 3.02 -15 2 C-9.87080814 -0.10428384 -5.4389165 -0.21755666 0 0 Z " fill="#70B5EF" transform="translate(187,250)"/><path d="M0 0 C2.20631498 0.88252599 3.88216796 1.95068847 5.78125 3.375 C6.70164063 4.05755859 6.70164063 4.05755859 7.640625 4.75390625 C8.09953125 5.10324219 8.5584375 5.45257813 9.03125 5.8125 C8.04125 6.1425 7.05125 6.4725 6.03125 6.8125 C5.04125 6.1525 4.05125 5.4925 3.03125 4.8125 C3.03125 4.1525 3.03125 3.4925 3.03125 2.8125 C-0.68611641 2.46349442 -0.68611641 2.46349442 -3.78125 4.3125 C-4.3690625 5.055 -4.3690625 5.055 -4.96875 5.8125 C-5.95875 5.4825 -6.94875 5.1525 -7.96875 4.8125 C-2.54409247 -0.24229452 -2.54409247 -0.24229452 0 0 Z " fill="#E5ECFE" transform="translate(248.96875,169.1875)"/><path d="M0 0 C1.32 0 2.64 0 4 0 C3.25 7.75 3.25 7.75 1 10 C0.67 7.69 0.34 5.38 0 3 C-0.99 3.495 -0.99 3.495 -2 4 C-1.34 2.68 -0.68 1.36 0 0 Z " fill="#2EA0F2" transform="translate(168,304)"/><path d="M0 0 C0.33 0 0.66 0 1 0 C0.76896131 7.68203647 0.57118142 13.659329 -4 20 C-5.23971427 16.28085718 -4.5565981 15.25662217 -3.125 11.6875 C-1.62220431 7.78023121 -0.45293058 4.18960787 0 0 Z " fill="#FBD8FD" transform="translate(343,203)"/><path d="M0 0 C4.875 0.875 4.875 0.875 6 2 C6.07226502 3.85287502 6.0838122 5.70833878 6.0625 7.5625 C6.05347656 8.57441406 6.04445313 9.58632812 6.03515625 10.62890625 C6.02355469 11.41136719 6.01195312 12.19382813 6 13 C5.67 13 5.34 13 5 13 C4.67 11.02 4.34 9.04 4 7 C3.01 7.495 3.01 7.495 2 8 C2 5.69 2 3.38 2 1 C1.34 0.67 0.68 0.34 0 0 Z " fill="#6663E3" transform="translate(258,199)"/><path d="M0 0 C0.66 0.33 1.32 0.66 2 1 C1.01 2.98 0.02 4.96 -1 7 C-3.97 6.505 -3.97 6.505 -7 6 C-6 3 -6 3 -3.0625 1.25 C-2.051875 0.8375 -1.04125 0.425 0 0 Z " fill="#4193F4" transform="translate(192,185)"/><path d="M0 0 C-0.33 0.99 -0.66 1.98 -1 3 C-1.66 3 -2.32 3 -3 3 C-3 3.99 -3 4.98 -3 6 C-4.98 6 -6.96 6 -9 6 C-7.93344655 3.09121786 -7.32878952 2.16439476 -4.5 0.75 C-2 0 -2 0 0 0 Z " fill="#508CF0" transform="translate(206,176)"/><path d="M0 0 C1.32 0 2.64 0 4 0 C4 0.66 4 1.32 4 2 C3.34 2 2.68 2 2 2 C1.67 3.98 1.34 5.96 1 8 C0.01 8.33 -0.98 8.66 -2 9 C-2.25 3.375 -2.25 3.375 0 0 Z " fill="#48D0FA" transform="translate(137,296)"/><path d="M0 0 C0.66 0.33 1.32 0.66 2 1 C-1.41016497 3.86453858 -4.90694544 5.34703566 -9 7 C-9 6.01 -9 5.02 -9 4 C-7.54618103 3.30300448 -6.08677047 2.61766134 -4.625 1.9375 C-3.40683594 1.36322266 -3.40683594 1.36322266 -2.1640625 0.77734375 C-1.09285156 0.39255859 -1.09285156 0.39255859 0 0 Z " fill="#3BA9F6" transform="translate(174,269)"/><path d="M0 0 C1.67542976 0.28604898 3.34385343 0.61781233 5 1 C4.67 1.99 4.34 2.98 4 4 C0.34543185 4.75241109 -3.31733897 5.40049704 -7 6 C-7 5.34 -7 4.68 -7 4 C-6.030625 3.525625 -5.06125 3.05125 -4.0625 2.5625 C-1.19522563 1.29806053 -1.19522563 1.29806053 0 0 Z " fill="#479FF5" transform="translate(184,264)"/><path d="M0 0 C0.33 0 0.66 0 1 0 C1.56638908 4.81430721 -0.17438373 7.20307814 -3 11 C-4.32 10.67 -5.64 10.34 -7 10 C-6.21625 9.0925 -5.4325 8.185 -4.625 7.25 C-2.69947504 4.94809764 -1.17794259 2.78422793 0 0 Z " fill="#D37CE2" transform="translate(342,216)"/><path d="M0 0 C2.16874252 0.50603992 3.99967627 0.99983813 6 2 C6 2.66 6 3.32 6 4 C7.65 4.33 9.3 4.66 11 5 C11.33 6.32 11.66 7.64 12 9 C8.98472262 7.59422879 6.4052059 5.93873852 3.75 3.9375 C3.04359375 3.41027344 2.3371875 2.88304687 1.609375 2.33984375 C1.07828125 1.89769531 0.5471875 1.45554688 0 1 C0 0.67 0 0.34 0 0 Z " fill="#836BD9" transform="translate(288,197)"/><path d="M0 0 C4.20467791 2.42087516 8.11248305 5.10341874 12 8 C12 8.33 12 8.66 12 9 C9.625 9.1875 9.625 9.1875 7 9 C6.34 8.01 5.68 7.02 5 6 C4.01 5.67 3.02 5.34 2 5 C2 4.01 2 3.02 2 2 C1.34 2 0.68 2 0 2 C0 1.34 0 0.68 0 0 Z " fill="#845BD9" transform="translate(307,187)"/><path d="M0 0 C2.31 0 4.62 0 7 0 C7.33 1.65 7.66 3.3 8 5 C8.66 5 9.32 5 10 5 C9.67 5.99 9.34 6.98 9 8 C7.49712782 6.85793642 5.99776716 5.71125043 4.5 4.5625 C3.6646875 3.92441406 2.829375 3.28632813 1.96875 2.62890625 C1.3190625 2.09136719 0.669375 1.55382812 0 1 C0 0.67 0 0.34 0 0 Z " fill="#7B76DD" transform="translate(265,180)"/><path d="M0 0 C2 3.75 2 3.75 2 6 C1.34 6 0.68 6 0 6 C0.66 9.3 1.32 12.6 2 16 C0 15 0 15 -0.6171875 13.2265625 C-1.01719083 10.90001252 -1.13289212 8.73474304 -1.125 6.375 C-1.12757813 5.59898437 -1.13015625 4.82296875 -1.1328125 4.0234375 C-1 2 -1 2 0 0 Z " fill="#2A75C9" transform="translate(185,312)"/><path d="M0 0 C0.66 0.33 1.32 0.66 2 1 C0.90453883 2.48562542 -0.20168823 3.96331709 -1.3125 5.4375 C-1.92738281 6.26121094 -2.54226562 7.08492188 -3.17578125 7.93359375 C-5 10 -5 10 -8 11 C-6.52670958 5.99081256 -3.72484762 3.48192278 0 0 Z " fill="#D3F3FE" transform="translate(180,298)"/><path d="M0 0 C0.66 0.33 1.32 0.66 2 1 C1.67 3.64 1.34 6.28 1 9 C0.34 9 -0.32 9 -1 9 C-1 8.34 -1 7.68 -1 7 C-1.66 7 -2.32 7 -3 7 C-3 6.01 -3 5.02 -3 4 C-2.34 4 -1.68 4 -1 4 C-0.67 2.68 -0.34 1.36 0 0 Z " fill="#983CDC" transform="translate(355,256)"/><path d="M0 0 C0.66 0.33 1.32 0.66 2 1 C1.01 2.32 0.02 3.64 -1 5 C-0.01 5 0.98 5 2 5 C2 5.66 2 6.32 2 7 C-0.31 7 -2.62 7 -5 7 C-4.67 5.68 -4.34 4.36 -4 3 C-3.34 3 -2.68 3 -2 3 C-2 2.34 -2 1.68 -2 1 C-1.34 0.67 -0.68 0.34 0 0 Z " fill="#3999F5" transform="translate(181,193)"/><path d="M0 0 C0.33 0.66 0.66 1.32 1 2 C-1.22723982 4.33965571 -3.58956647 6.27099166 -6.1875 8.1875 C-6.90292969 8.71730469 -7.61835938 9.24710937 -8.35546875 9.79296875 C-8.89816406 10.19128906 -9.44085938 10.58960938 -10 11 C-8.55218207 7.55571735 -6.72305391 5.63869038 -3.875 3.25 C-3.15054688 2.63640625 -2.42609375 2.0228125 -1.6796875 1.390625 C-0.84824219 0.70226562 -0.84824219 0.70226562 0 0 Z " fill="#346EC4" transform="translate(196,301)"/><path d="M0 0 C1 3 1 3 0.125 5.1875 C-3.21413695 8.0355874 -6.78484599 7.31812483 -11 7 C-11 6.67 -11 6.34 -11 6 C-8.69 6 -6.38 6 -4 6 C-3.71125 5.38125 -3.4225 4.7625 -3.125 4.125 C-2 2 -2 2 0 0 Z " fill="#CCEAFC" transform="translate(221,333)"/><path d="M0 0 C0.66 0.33 1.32 0.66 2 1 C1.360625 1.103125 0.72125 1.20625 0.0625 1.3125 C-0.618125 1.539375 -1.29875 1.76625 -2 2 C-2.33 2.99 -2.66 3.98 -3 5 C-5.9375 6.25 -5.9375 6.25 -9 7 C-9.66 6.67 -10.32 6.34 -11 6 C-9.21385682 4.96953278 -7.42089982 3.95086764 -5.625 2.9375 C-4.62726563 2.36902344 -3.62953125 1.80054688 -2.6015625 1.21484375 C-1.74304688 0.81394531 -0.88453125 0.41304688 0 0 Z " fill="#CFEBFD" transform="translate(195,289)"/><path d="M0 0 C0.99 0.33 1.98 0.66 3 1 C4.1875 4.0625 4.1875 4.0625 5 7 C5.66 7 6.32 7 7 7 C6.67 8.32 6.34 9.64 6 11 C5.34 10.34 4.68 9.68 4 9 C4 8.01 4 7.02 4 6 C3.34 6 2.68 6 2 6 C1.34 4.02 0.68 2.04 0 0 Z " fill="#EA66EE" transform="translate(356,196)"/><path d="M0 0 C1.65 0 3.3 0 5 0 C3.66144904 2.67710191 2.27941912 2.95129094 -0.4375 4.125 C-1.24058594 4.47820312 -2.04367188 4.83140625 -2.87109375 5.1953125 C-5 6 -5 6 -7 6 C-7 5.34 -7 4.68 -7 4 C-4.35261084 2.5393715 -3.10551666 2 0 2 C0 1.34 0 0.68 0 0 Z " fill="#526ED6" transform="translate(251,311)"/><path d="M0 0 C0.33 0.99 0.66 1.98 1 3 C1.99 3.33 2.98 3.66 4 4 C3.34 5.32 2.68 6.64 2 8 C1.01 7.67 0.02 7.34 -1 7 C-1.625 4.625 -1.625 4.625 -2 2 C-1.34 1.34 -0.68 0.68 0 0 Z " fill="#59D4FA" transform="translate(139,276)"/><path d="M0 0 C0.8971875 0.5259375 0.8971875 0.5259375 1.8125 1.0625 C0.8225 2.0525 -0.1675 3.0425 -1.1875 4.0625 C-1.5175 3.4025 -1.8475 2.7425 -2.1875 2.0625 C-3.8375 2.7225 -5.4875 3.3825 -7.1875 4.0625 C-7.1875 3.4025 -7.1875 2.7425 -7.1875 2.0625 C-6.5275 2.0625 -5.8675 2.0625 -5.1875 2.0625 C-5.1875 1.4025 -5.1875 0.7425 -5.1875 0.0625 C-2.1875 -0.9375 -2.1875 -0.9375 0 0 Z " fill="#2EAAF8" transform="translate(158.1875,212.9375)"/><path d="M0 0 C1.32 0.66 2.64 1.32 4 2 C4 2.66 4 3.32 4 4 C4.66 4.66 5.32 5.32 6 6 C5.01 6.495 5.01 6.495 4 7 C1.9375 6.3125 1.9375 6.3125 0 5 C-0.8125 2.9375 -0.8125 2.9375 -1 1 C-0.67 0.67 -0.34 0.34 0 0 Z " fill="#7E56E9" transform="translate(300,201)"/><path d="M0 0 C0.66 0.33 1.32 0.66 2 1 C2 2.32 2 3.64 2 5 C-1.63 5 -5.26 5 -9 5 C-9 4.67 -9 4.34 -9 4 C-7.88625 3.896875 -6.7725 3.79375 -5.625 3.6875 C-4.42875 3.460625 -3.2325 3.23375 -2 3 C-1.34 2.01 -0.68 1.02 0 0 Z " fill="#1371D8" transform="translate(215,333)"/><path d="M0 0 C-1.6188996 1.03048037 -3.24532489 2.04914678 -4.875 3.0625 C-5.77992188 3.63097656 -6.68484375 4.19945312 -7.6171875 4.78515625 C-8.40351563 5.18605469 -9.18984375 5.58695312 -10 6 C-10.66 5.67 -11.32 5.34 -12 5 C-4.5 -1.5 -4.5 -1.5 0 0 Z " fill="#C766ED" transform="translate(344,257)"/><path d="M0 0 C0.66 0 1.32 0 2 0 C2 3.96 2 7.92 2 12 C1.67 12 1.34 12 1 12 C0.855625 11.2575 0.71125 10.515 0.5625 9.75 C0.05802414 7.08713438 0.05802414 7.08713438 -0.625 4.875 C-1 3 -1 3 0 0 Z " fill="#4B6FE5" transform="translate(243,219)"/><path d="M0 0 C0.99 0.33 1.98 0.66 3 1 C1.71283353 2.00578589 0.42011342 3.00446798 -0.875 4 C-1.95394531 4.8353125 -1.95394531 4.8353125 -3.0546875 5.6875 C-5 7 -5 7 -7 7 C-7 6.34 -7 5.68 -7 5 C-6.34 4.67 -5.68 4.34 -5 4 C-4.34 3.01 -3.68 2.02 -3 1 C-2.01 1.33 -1.02 1.66 0 2 C0 1.34 0 0.68 0 0 Z " fill="#5D97E5" transform="translate(199,203)"/><path d="M0 0 C0 0.33 0 0.66 0 1 C-4.455 1.495 -4.455 1.495 -9 2 C-9 2.99 -9 3.98 -9 5 C-10.65 5 -12.3 5 -14 5 C-9.10666796 -0.05644311 -6.85563609 -0.11057478 0 0 Z " fill="#7C8BDF" transform="translate(252,145)"/><path d="M0 0 C1.32 0 2.64 0 4 0 C4 0.66 4 1.32 4 2 C1.1875 3.5625 1.1875 3.5625 -2 5 C-2.99 4.67 -3.98 4.34 -5 4 C-4.67 3.34 -4.34 2.68 -4 2 C-2.68 2 -1.36 2 0 2 C0 1.34 0 0.68 0 0 Z " fill="#1E65D7" transform="translate(201,299)"/><path d="M0 0 C-3.79541663 2.21399303 -7.75629421 3.00980198 -12 4 C-12 3.34 -12 2.68 -12 2 C-8.09971775 -0.60018816 -4.52565431 -0.15085514 0 0 Z " fill="#755BD5" transform="translate(312,295)"/><path d="M0 0 C0.66 0.33 1.32 0.66 2 1 C0.515 3.475 0.515 3.475 -1 6 C-3.475 5.01 -3.475 5.01 -6 4 C-4 2.66666667 -2 1.33333333 0 0 Z " fill="#335DE2" transform="translate(230,289)"/><path d="M0 0 C-2.3129482 2.3129482 -3.47904875 2.49580975 -6.625 3.125 C-7.44226563 3.29257812 -8.25953125 3.46015625 -9.1015625 3.6328125 C-10.04128906 3.81457031 -10.04128906 3.81457031 -11 4 C-10.67 3.01 -10.34 2.02 -10 1 C-6.52674819 -0.1577506 -3.63932552 -0.06866652 0 0 Z " fill="#4485DC" transform="translate(208,284)"/><path d="M0 0 C0 0.33 0 0.66 0 1 C-1.41377782 1.36552803 -2.83120576 1.71695495 -4.25 2.0625 C-5.03890625 2.25972656 -5.8278125 2.45695312 -6.640625 2.66015625 C-9.10394822 3.01497267 -10.65604132 2.76877544 -13 2 C-8.3683343 -1.61848883 -5.49434694 -1.02436977 0 0 Z " fill="#477BD6" transform="translate(222,281)"/><path d="M0 0 C0.99 0 1.98 0 3 0 C3.6875 3.3125 3.6875 3.3125 4 7 C2.5625 8.9375 2.5625 8.9375 1 10 C1 7.36 1 4.72 1 2 C0.34 1.67 -0.32 1.34 -1 1 C-0.67 0.67 -0.34 0.34 0 0 Z " fill="#8550E6" transform="translate(308,208)"/><path d="M0 0 C0.33 0.99 0.66 1.98 1 3 C-1.375 4.0625 -1.375 4.0625 -4 5 C-4.66 4.67 -5.32 4.34 -6 4 C-5.67 3.01 -5.34 2.02 -5 1 C-3 0 -3 0 0 0 Z " fill="#6D68ED" transform="translate(271,176)"/><path d="M0 0 C2.3431213 0.25561323 4.67843403 0.59270772 7 1 C7.33 1.66 7.66 2.32 8 3 C5.69 3.66 3.38 4.32 1 5 C0.67 3.35 0.34 1.7 0 0 Z " fill="#3265E7" transform="translate(239,312)"/><path d="M0 0 C1.65 0 3.3 0 5 0 C5.33 0.99 5.66 1.98 6 3 C5.01 3 4.02 3 3 3 C3 3.66 3 4.32 3 5 C1.68 4.67 0.36 4.34 -1 4 C-0.34 4 0.32 4 1 4 C0.67 2.68 0.34 1.36 0 0 Z " fill="#594EE5" transform="translate(282,298)"/><path d="M0 0 C0.66 0 1.32 0 2 0 C0.7508258 3.45925163 -0.67527795 6.14693203 -3 9 C-2.25 2.25 -2.25 2.25 0 0 Z " fill="#9D4BCC" transform="translate(359,256)"/><path d="M0 0 C0.99 0.33 1.98 0.66 3 1 C3 2.65 3 4.3 3 6 C2.01 6 1.02 6 0 6 C-1 3 -1 3 0 0 Z " fill="#AA3ADA" transform="translate(362,240)"/><path d="M0 0 C0.33 0 0.66 0 1 0 C1 1.98 1 3.96 1 6 C0.34 6 -0.32 6 -1 6 C-1 6.66 -1 7.32 -1 8 C-1.99 7.67 -2.98 7.34 -4 7 C-1.125 1.125 -1.125 1.125 0 0 Z " fill="#3593F0" transform="translate(188,231)"/><path d="M0 0 C2.31 0.66 4.62 1.32 7 2 C7 2.66 7 3.32 7 4 C7.66 4 8.32 4 9 4 C9 4.66 9 5.32 9 6 C4.75177626 5.52797514 2.80010291 3.03344482 0 0 Z " fill="#8867D5" transform="translate(300,206)"/><path d="M0 0 C1.65 0 3.3 0 5 0 C5 0.66 5 1.32 5 2 C4.01 2 3.02 2 2 2 C2 2.66 2 3.32 2 4 C2.99 4.33 3.98 4.66 5 5 C4.01 5.33 3.02 5.66 2 6 C1.34 5.34 0.68 4.68 0 4 C0 2.68 0 1.36 0 0 Z " fill="#7267E5" transform="translate(275,184)"/><path d="M0 0 C0.66 0.33 1.32 0.66 2 1 C-0.31 3.31 -2.62 5.62 -5 8 C-5.99 7.67 -6.98 7.34 -8 7 C-5.36 4.69 -2.72 2.38 0 0 Z " fill="#D3EAFD" transform="translate(230,325)"/><path d="M0 0 C-2.3129482 2.3129482 -3.47904875 2.49580975 -6.625 3.125 C-7.44226563 3.29257812 -8.25953125 3.46015625 -9.1015625 3.6328125 C-10.04128906 3.81457031 -10.04128906 3.81457031 -11 4 C-11 3.34 -11 2.68 -11 2 C-7.36576791 -0.32590854 -4.22911669 -0.16265833 0 0 Z " fill="#6757D2" transform="translate(296,299)"/><path d="M0 0 C0.33 0.66 0.66 1.32 1 2 C0.34 2 -0.32 2 -1 2 C-1.268125 2.78375 -1.53625 3.5675 -1.8125 4.375 C-3 7 -3 7 -6 9 C-5.69381595 5.32579134 -5.24228216 4.21864487 -2.4375 1.6875 C-1.633125 1.130625 -0.82875 0.57375 0 0 Z " fill="#D863ED" transform="translate(359,239)"/><path d="M0 0 C1.98 0 3.96 0 6 0 C5.67 1.32 5.34 2.64 5 4 C3.0625 3.6875 3.0625 3.6875 1 3 C0.67 2.01 0.34 1.02 0 0 Z " fill="#4B83F7" transform="translate(214,184)"/><path d="M0 0 C0 0.99 0 1.98 0 3 C-2.25 4.125 -2.25 4.125 -5 5 C-6.32 4.34 -7.64 3.68 -9 3 C-6.03 2.01 -3.06 1.02 0 0 Z " fill="#C187E3" transform="translate(318,238)"/><path d="M0 0 C0.66 0 1.32 0 2 0 C4.32590854 3.63423209 4.16265833 6.77088331 4 11 C2.03698408 7.49461443 1.04097612 3.86648272 0 0 Z " fill="#FBD6FC" transform="translate(365,205)"/><path d="M0 0 C0.66 0.33 1.32 0.66 2 1 C0.29374499 3.78388975 -0.47626739 4.85384206 -3.6875 5.75 C-4.8321875 5.87375 -4.8321875 5.87375 -6 6 C-4 4 -2 2 0 0 Z " fill="#DDEEFE" transform="translate(219,190)"/><path d="M0 0 C1.32 1.32 2.64 2.64 4 4 C2.35 4.66 0.7 5.32 -1 6 C-1 3 -1 3 0 0 Z " fill="#5B7FE4" transform="translate(229,177)"/><path d="M0 0 C3.91402949 1.26941497 5.79072873 2.51167694 8 6 C5.83125748 5.49396008 4.00032373 5.00016187 2 4 C2 3.34 2 2.68 2 2 C1.34 2 0.68 2 0 2 C0 1.34 0 0.68 0 0 Z " fill="#7F7BDB" transform="translate(264,155)"/><path d="M0 0 C3.60654039 2.40436026 3.85452932 3.94679607 5 8 C4.01 8.495 4.01 8.495 3 9 C0.70620251 5.55930376 0 4.27709699 0 0 Z " fill="#DCF7FE" transform="translate(172,323)"/><path d="M0 0 C0.66 0.33 1.32 0.66 2 1 C-0.25 3.0625 -0.25 3.0625 -3 5 C-5.3125 4.75 -5.3125 4.75 -7 4 C-1.7265625 0.77734375 -1.7265625 0.77734375 0 0 Z " fill="#81C7EE" transform="translate(161,256)"/><path d="M0 0 C0.33 0.66 0.66 1.32 1 2 C-1.33333333 4.33333333 -3.66666667 6.66666667 -6 9 C-5.69381595 5.32579134 -5.24228216 4.21864487 -2.4375 1.6875 C-1.633125 1.130625 -0.82875 0.57375 0 0 Z " fill="#E9F7FC" transform="translate(205,201)"/><path d="M0 0 C4.875 1.75 4.875 1.75 6 4 C3.69 4 1.38 4 -1 4 C-0.67 2.68 -0.34 1.36 0 0 Z " fill="#8F55DA" transform="translate(325,201)"/><path d="M0 0 C0.66 0.99 1.32 1.98 2 3 C1.67 3.99 1.34 4.98 1 6 C-0.65 4.35 -2.3 2.7 -4 1 C-2 0 -2 0 0 0 Z " fill="#FCE4FD" transform="translate(356,188)"/><path d="M0 0 C3.3 0.33 6.6 0.66 10 1 C9.01 1.495 9.01 1.495 8 2 C8 2.66 8 3.32 8 4 C2.25 2.25 2.25 2.25 0 0 Z " fill="#C985D8" transform="translate(320,179)"/></svg>