<svg xmlns="http://www.w3.org/2000/svg" version="1.1" width="1024" height="1024"><path d="M0 0 C337.92 0 675.84 0 1024 0 C1024 337.92 1024 675.84 1024 1024 C686.08 1024 348.16 1024 0 1024 C0 686.08 0 348.16 0 0 Z " fill="#FDFDFD" transform="translate(0,0)"/><path d="M0 0 C7.35235995 -0.3061399 14.02148183 0.50741325 21.1875 2.125 C22.19345215 2.34945801 23.1994043 2.57391602 24.23583984 2.80517578 C48.50623049 8.45984646 72.20948712 21.25399676 86.33984375 42.3046875 C101.77287288 67.3606642 103.89279082 97.94853172 97.25 126.2890625 C90.80192321 151.31617067 78.22393427 172.92178161 60.36645508 191.5168457 C59.0311975 192.96613815 57.79276122 194.50277084 56.55859375 196.0390625 C53.72992164 199.3125487 50.74002273 201.82782332 47.3125 204.4375 C46.3834082 205.15353394 46.3834082 205.15353394 45.43554688 205.8840332 C43.6312965 207.26643488 41.81829758 208.63614668 40 210 C38.69095703 210.98226562 38.69095703 210.98226562 37.35546875 211.984375 C10.55084724 231.36549436 -22.54464132 241.8798642 -54.44287109 249.23120117 C-62.20620721 251.02155741 -69.86730321 253.08646496 -77.52294922 255.2890625 C-80.26432844 256.07586482 -83.00917546 256.84997458 -85.75390625 257.625 C-97.91403469 261.08577158 -109.89973123 264.85644531 -121.77587891 269.19433594 C-123.81689943 269.93367378 -125.86484516 270.646704 -127.91796875 271.3515625 C-156.12042715 281.34663066 -192.99980185 298.31205151 -209.80078125 324.84375 C-212.69175109 327.67823553 -214.55257175 327.6441026 -218.49780273 327.69506836 C-219.34415283 327.6719458 -220.19050293 327.64882324 -221.0625 327.625 C-221.94429932 327.61025635 -222.82609863 327.5955127 -223.73461914 327.58032227 C-241.73020826 326.92497582 -258.7577825 320.87814093 -271.90234375 308.33203125 C-276.42621472 303.30269984 -279.58934027 297.84432876 -280 291 C-280.09667969 290.23429687 -280.19335938 289.46859375 -280.29296875 288.6796875 C-281.07315644 278.58140904 -276.60223278 270.15572591 -270.2734375 262.60546875 C-251.14683423 241.46815991 -221.2442115 231.34708259 -194.4375 224.3125 C-192.80675537 223.88408813 -192.80675537 223.88408813 -191.14306641 223.44702148 C-175.11157065 219.36199253 -159.10274392 217.16480266 -142.6875 215.375 C-140.73366573 215.15677069 -138.77988927 214.93802317 -136.82617188 214.71875 C-127.89253274 213.72166794 -118.95961548 212.73720882 -110 212 C-112.93586647 211.34589503 -115.87336861 210.70163391 -118.8125 210.0625 C-119.62654297 209.88009766 -120.44058594 209.69769531 -121.27929688 209.50976562 C-132.55743091 207.07722691 -143.74112913 206.79255513 -155.25 206.8125 C-155.9514212 206.81343658 -156.65284241 206.81437317 -157.3755188 206.81533813 C-202.10566205 206.94398411 -251.38464839 216.10849058 -287 245 C-287.75023437 245.58523438 -288.50046875 246.17046875 -289.2734375 246.7734375 C-298.36001624 254.1889213 -304.68613722 264.45231097 -307 276 C-308.11511979 289.16206969 -304.74409367 300.31315073 -297 311 C-295.69492586 312.36100589 -294.36824946 313.70252207 -293 315 C-293.33 315.66 -293.66 316.32 -294 317 C-316.73876011 310.49339107 -339.83541139 302.80865512 -358 287 C-359.24523437 285.93458984 -359.24523437 285.93458984 -360.515625 284.84765625 C-363.06386258 282.61604101 -365.54435023 280.33286728 -368 278 C-368.6290625 277.40960937 -369.258125 276.81921875 -369.90625 276.2109375 C-380.33305188 265.45237374 -386.81706222 248.20020396 -387.375 233.375 C-386.97433979 215.81272754 -378.58104184 199.81452558 -367 187 C-366.39800781 186.32839844 -365.79601562 185.65679688 -365.17578125 184.96484375 C-355.06571681 174.30370662 -342.93735687 166.72803403 -330 160 C-328.83198853 159.38910522 -328.83198853 159.38910522 -327.64038086 158.76586914 C-305.12540123 147.22361618 -279.93478565 141.45178872 -255 138 C-254.31067383 137.90235352 -253.62134766 137.80470703 -252.91113281 137.70410156 C-221.89674139 133.40177823 -190.06612732 134.29362157 -158.8760376 135.85888672 C-141.2355055 136.74364951 -123.62251012 137.24133919 -105.95846558 137.29956055 C-103.53601742 137.30801287 -101.11358014 137.32146545 -98.69119263 137.34057617 C-77.52939274 137.49069016 -56.26164566 136.34617187 -35.625 131.3125 C-34.56176514 131.05903809 -33.49853027 130.80557617 -32.40307617 130.54443359 C-12.90271571 125.67336131 5.73671182 117.40681524 21.51171875 104.8828125 C24 103 24 103 26.20703125 101.9921875 C28.5318749 100.70567271 28.91483155 99.38469116 30 97 C31.03396791 95.84872175 32.09954536 94.72540263 33.1875 93.625 C43.49260889 82.17727443 47.34713237 67.77992015 47.21484375 52.7578125 C46.44167673 39.23441843 39.21434081 29.38671794 30 20 C29.40703125 19.38253906 28.8140625 18.76507813 28.203125 18.12890625 C20.32132695 10.57842272 9.70942618 5.77909451 0 1 C0 0.67 0 0.34 0 0 Z " fill="#436CE8" transform="translate(656,367)"/><path d="M0 0 C7.35235995 -0.3061399 14.02148183 0.50741325 21.1875 2.125 C22.19345215 2.34945801 23.1994043 2.57391602 24.23583984 2.80517578 C48.50623049 8.45984646 72.20948712 21.25399676 86.33984375 42.3046875 C96.70134767 59.12689386 100.3728535 75.97760518 100.25 95.5625 C100.25773437 96.79935547 100.26546875 98.03621094 100.2734375 99.31054688 C100.25768628 106.75693588 99.64093513 113.73260106 98 121 C97.67 121 97.34 121 97 121 C97.33 111.76 97.66 102.52 98 93 C97.34 94.98 96.68 96.96 96 99 C95.36440009 100.87849366 94.71879518 102.75363624 94.0625 104.625 C93.74410156 105.54539062 93.42570312 106.46578125 93.09765625 107.4140625 C92.00419278 109.99012235 90.72009249 111.81079138 89 114 C88.26994271 115.32156356 87.5623985 116.65575404 86.875 118 C81.37438525 128.02956401 73.82031043 136.71797383 66 145 C65.40445312 145.63679687 64.80890625 146.27359375 64.1953125 146.9296875 C55.38613006 156.06363243 44.85380158 162.31465227 34.03808594 168.77099609 C32.36775145 169.77823901 30.71616804 170.81651712 29.0703125 171.86328125 C22.71674582 175.8941506 16.06205632 178.4536295 9 181 C7.72887327 181.52011687 6.45799426 182.0408401 5.1875 182.5625 C0.56186798 184.30449333 -4.26719937 185.35877246 -9.06542969 186.51098633 C-13.46753002 187.57745859 -17.70186792 188.81173609 -21.91015625 190.484375 C-24.9394157 191.23178107 -27.88576635 191.01637347 -31 191 C-33.46367791 191.26711455 -35.92290029 191.57935751 -38.375 191.9375 C-39.59960938 192.11152344 -40.82421875 192.28554688 -42.0859375 192.46484375 C-44.88265671 192.69340513 -44.88265671 192.69340513 -46 194 C-48.99730504 194.11379508 -51.97063558 194.16420013 -54.96875 194.16796875 C-56.33296082 194.17296135 -56.33296082 194.17296135 -57.72473145 194.17805481 C-59.65827935 194.18313167 -61.59183606 194.1854629 -63.52539062 194.18530273 C-66.45978711 194.1874703 -69.39379607 194.20556493 -72.328125 194.22460938 C-74.20833205 194.22754707 -76.08854089 194.22952935 -77.96875 194.23046875 C-78.83786011 194.23765427 -79.70697021 194.24483978 -80.60241699 194.25224304 C-85.59478421 194.2338914 -90.11344712 193.72030955 -94.9559021 192.48852539 C-97.84068836 191.79908124 -100.74311291 191.47272053 -103.68383789 191.11328125 C-113.94874249 189.84851853 -123.99035364 187.80534345 -134.0625 185.5 C-134.71631653 185.3505191 -135.37013306 185.20103821 -136.04376221 185.04702759 C-142.48310113 183.56831588 -148.90518293 182.03342159 -155.30859375 180.40625 C-165.19167182 177.92048371 -175.21685313 176.20036261 -185.25 174.4375 C-187.08111328 174.10588867 -187.08111328 174.10588867 -188.94921875 173.76757812 C-238.10032598 165.15963289 -292.67550685 176.14625906 -333.75 204.875 C-338.49760141 208.43389999 -342.84472204 212.38714568 -347.11816406 216.49560547 C-350.7974682 220 -350.7974682 220 -353 220 C-353.38285156 220.86818359 -353.38285156 220.86818359 -353.7734375 221.75390625 C-355.1239206 224.22692466 -356.67184081 225.91041646 -358.625 227.9375 C-365.74139208 235.80298598 -370.81738236 244.95300444 -374.9921875 254.66015625 C-375.9216159 256.81801521 -376.92836454 258.90982813 -378 261 C-378.66 261 -379.32 261 -380 261 C-386.91367864 243.9269081 -389.76107005 229.86213732 -383 212 C-379.02084529 202.7367484 -373.76549926 194.48608498 -367 187 C-366.39800781 186.32839844 -365.79601562 185.65679688 -365.17578125 184.96484375 C-355.06571681 174.30370662 -342.93735687 166.72803403 -330 160 C-328.83198853 159.38910522 -328.83198853 159.38910522 -327.64038086 158.76586914 C-305.12540123 147.22361618 -279.93478565 141.45178872 -255 138 C-254.31067383 137.90235352 -253.62134766 137.80470703 -252.91113281 137.70410156 C-221.89674139 133.40177823 -190.06612732 134.29362157 -158.8760376 135.85888672 C-141.2355055 136.74364951 -123.62251012 137.24133919 -105.95846558 137.29956055 C-103.53601742 137.30801287 -101.11358014 137.32146545 -98.69119263 137.34057617 C-77.52939274 137.49069016 -56.26164566 136.34617187 -35.625 131.3125 C-34.56176514 131.05903809 -33.49853027 130.80557617 -32.40307617 130.54443359 C-12.90271571 125.67336131 5.73671182 117.40681524 21.51171875 104.8828125 C24 103 24 103 26.20703125 101.9921875 C28.5318749 100.70567271 28.91483155 99.38469116 30 97 C31.03396791 95.84872175 32.09954536 94.72540263 33.1875 93.625 C43.49260889 82.17727443 47.34713237 67.77992015 47.21484375 52.7578125 C46.44167673 39.23441843 39.21434081 29.38671794 30 20 C29.40703125 19.38253906 28.8140625 18.76507813 28.203125 18.12890625 C20.32132695 10.57842272 9.70942618 5.77909451 0 1 C0 0.67 0 0.34 0 0 Z " fill="#A489F2" transform="translate(656,367)"/><path d="M0 0 C3.64908275 1.67857807 6.71806249 4.0765092 9.859375 6.5546875 C14.50804616 10.19538977 19.22081139 13.74251027 23.953125 17.2734375 C31.25511656 22.73319931 38.5217869 28.2367832 45.765625 33.7734375 C51.79821313 38.38171755 57.85033322 42.9473863 64.01171875 47.3828125 C73.97310233 54.61168302 83.73476256 62.1161284 93.515625 69.5859375 C99.55827765 74.19878843 105.61072314 78.78535527 111.78125 83.2265625 C122.45502576 90.93222949 133.03413822 98.76225055 143.44140625 106.82421875 C147.29345553 109.80129397 151.18427028 112.72636634 155.078125 115.6484375 C155.73256592 116.14037598 156.38700684 116.63231445 157.0612793 117.13916016 C157.69332275 117.61272949 158.32536621 118.08629883 158.9765625 118.57421875 C159.89646973 119.27345459 159.89646973 119.27345459 160.83496094 119.98681641 C162.69413958 121.36953097 162.69413958 121.36953097 164.73535156 122.55615234 C166.6796875 123.75390625 166.6796875 123.75390625 169.703125 126.3359375 C171.16092455 134.65114938 166.30350277 143.36177525 161.83984375 150.18359375 C159.90157615 152.69673831 157.88132393 155.02842064 155.703125 157.3359375 C155.05988281 158.02042969 154.41664063 158.70492187 153.75390625 159.41015625 C144.81966784 168.07211311 127.50221376 179.3359375 114.703125 179.3359375 C114.703125 165.4759375 114.703125 151.6159375 114.703125 137.3359375 C113.383125 136.6759375 112.063125 136.0159375 110.703125 135.3359375 C109.44155391 134.5019892 108.19858693 133.63941477 106.97265625 132.75390625 C106.26117432 132.24093994 105.54969238 131.72797363 104.81665039 131.19946289 C104.05731201 130.64637451 103.29797363 130.09328613 102.515625 129.5234375 C101.71825928 128.9452124 100.92089355 128.3669873 100.09936523 127.77124023 C94.05097246 123.36519348 88.09472062 118.84787 82.16674805 114.28173828 C73.00900971 107.23894377 63.67161289 100.43931308 54.3515625 93.61376953 C44.34868598 86.28515703 34.42722514 78.8635705 24.57910156 71.328125 C18.45347475 66.64879501 12.28524798 62.03159377 6.078125 57.4609375 C5.27826172 56.87183594 4.47839844 56.28273438 3.65429688 55.67578125 C-1.49170269 51.29138071 -1.49170269 51.29138071 -7.5078125 49.35546875 C-11.60107236 50.79441584 -14.55971107 53.32809756 -17.921875 56.0234375 C-19.44403192 57.21647941 -20.96751842 58.40782648 -22.4921875 59.59765625 C-23.28141602 60.21560059 -24.07064453 60.83354492 -24.88378906 61.47021484 C-28.80101732 64.49889335 -32.7987654 67.41537618 -36.796875 70.3359375 C-42.84892656 74.77047194 -48.85117227 79.25980528 -54.796875 83.8359375 C-61.44019848 88.94850917 -68.16511751 93.93862376 -74.92749023 98.89233398 C-80.96038144 103.3231296 -86.91873258 107.84492528 -92.859375 112.3984375 C-100.32539936 118.11966939 -107.86847381 123.71309524 -115.52563477 129.17602539 C-116.55708618 129.91260376 -116.55708618 129.91260376 -117.609375 130.6640625 C-118.20363281 131.0859082 -118.79789062 131.50775391 -119.41015625 131.94238281 C-120.03277344 132.40225586 -120.65539062 132.86212891 -121.296875 133.3359375 C-122.18334717 133.79484375 -123.06981934 134.25375 -123.9831543 134.7265625 C-127.84459938 139.08143482 -127.02258859 144.14067203 -127.00390625 149.7578125 C-127.02658821 151.58049652 -127.02658821 151.58049652 -127.04972839 153.44000244 C-127.09272597 157.3221678 -127.10145569 161.20355739 -127.109375 165.0859375 C-127.1325097 167.71746872 -127.15787286 170.34898136 -127.18554688 172.98046875 C-127.24851877 179.43229892 -127.28335707 185.88382446 -127.296875 192.3359375 C-128.39483902 192.54104195 -128.39483902 192.54104195 -129.51498413 192.75028992 C-132.88836929 193.38285159 -136.26058222 194.02146764 -139.6328125 194.66015625 C-141.35939087 194.98252258 -141.35939087 194.98252258 -143.12084961 195.31140137 C-152.70963008 197.13452464 -161.9410501 199.56090469 -171.296875 202.3359375 C-171.296875 190.4559375 -171.296875 178.5759375 -171.296875 166.3359375 C-181.55829179 166.49377175 -181.55829179 166.49377175 -191.81884766 166.69628906 C-193.1032373 166.7062793 -194.38762695 166.71626953 -195.7109375 166.7265625 C-197.0201416 166.74750977 -198.3293457 166.76845703 -199.67822266 166.79003906 C-204.73329225 166.15568274 -207.78540286 163.99855686 -211.171875 160.2734375 C-212.95252517 155.62396205 -213.02969702 151.24076605 -212.296875 146.3359375 C-209.03869037 140.6060266 -203.44697872 137.37103037 -198.12548828 133.63476562 C-194.41762525 131.00114328 -190.76818198 128.28706035 -187.109375 125.5859375 C-186.28808105 124.98072266 -185.46678711 124.37550781 -184.62060547 123.75195312 C-178.8429156 119.49029828 -173.09329952 115.19269082 -167.35668945 110.87597656 C-161.39226358 106.39358424 -155.38352754 101.97248102 -149.37207031 97.5534668 C-144.24264 93.77934411 -139.13556112 89.97728811 -134.046875 86.1484375 C-127.81935211 81.46416038 -121.5517163 76.83820937 -115.26171875 72.23828125 C-110.04169832 68.42045767 -104.83759211 64.58106229 -99.63232422 60.74316406 C-95.56517494 57.74442707 -91.49705947 54.74703605 -87.42578125 51.75390625 C-76.02217055 43.36744086 -64.67717416 34.90669613 -53.37890625 26.37890625 C-46.23000182 20.98962342 -39.04288336 15.65662274 -31.796875 10.3984375 C-31.06742676 9.86677979 -30.33797852 9.33512207 -29.58642578 8.78735352 C-27.50371745 7.28264561 -25.40625775 5.80297628 -23.296875 4.3359375 C-22.61044922 3.85116943 -21.92402344 3.36640137 -21.21679688 2.86694336 C-14.51287074 -1.63995827 -7.85212201 -2.27017133 0 0 Z " fill="#5B7AF1" transform="translate(516.296875,297.6640625)"/><path d="M0 0 C10.23 0 20.46 0 31 0 C31 9.9 31 19.8 31 30 C20.77 30 10.54 30 0 30 C0 20.1 0 10.2 0 0 Z " fill="#497DEE" transform="translate(473,446)"/><path d="M0 0 C10.23 0 20.46 0 31 0 C31 9.9 31 19.8 31 30 C20.77 30 10.54 30 0 30 C0 20.1 0 10.2 0 0 Z " fill="#4A7BEF" transform="translate(473,407)"/><path d="M0 0 C9.9 0 19.8 0 30 0 C30 9.9 30 19.8 30 30 C20.1 30 10.2 30 0 30 C0 20.1 0 10.2 0 0 Z " fill="#5B69EB" transform="translate(513,446)"/><path d="M0 0 C9.9 0 19.8 0 30 0 C30 9.9 30 19.8 30 30 C20.1 30 10.2 30 0 30 C0 20.1 0 10.2 0 0 Z " fill="#5E69EC" transform="translate(513,407)"/><path d="M0 0 C0.66 0 1.32 0 2 0 C3.12992939 7.12109114 3.18386231 14.05464129 3.1875 21.25 C3.19974609 22.50941406 3.21199219 23.76882813 3.22460938 25.06640625 C3.23635147 32.60482952 2.6790033 39.6447289 1 47 C0.67 47 0.34 47 0 47 C0.33 37.76 0.66 28.52 1 19 C0.34 20.98 -0.32 22.96 -1 25 C-1.63559991 26.87849366 -2.28120482 28.75363624 -2.9375 30.625 C-3.41509766 32.00558594 -3.41509766 32.00558594 -3.90234375 33.4140625 C-4.99580722 35.99012235 -6.27990751 37.81079138 -8 40 C-8.73005729 41.32156356 -9.4376015 42.65575404 -10.125 44 C-17.19343119 56.88824728 -27.5166536 67.82003018 -38 78 C-38.66 77.67 -39.32 77.34 -40 77 C-38.69675781 75.7315625 -38.69675781 75.7315625 -37.3671875 74.4375 C-26.82770183 64.26567203 -26.82770183 64.26567203 -19 52 C-18.34 52 -17.68 52 -17 52 C-16.74992188 51.3296875 -16.49984375 50.659375 -16.2421875 49.96875 C-15.02995565 47.07159212 -13.63778762 44.31414403 -12.18212891 41.53295898 C-6.20300733 30.03454204 -2.82520989 18.97992444 -1.39453125 6.1171875 C-1 3 -1 3 0 0 Z " fill="#B14AD3" transform="translate(753,441)"/><path d="M0 0 C5.44693314 -0.09688221 10.63904667 -0.12862175 16 1 C15.67 1.66 15.34 2.32 15 3 C12.03 2.505 12.03 2.505 9 2 C9 2.66 9 3.32 9 4 C11.475 4.99 11.475 4.99 14 6 C13.01 6.495 13.01 6.495 12 7 C9.1796875 5.78515625 9.1796875 5.78515625 5.875 4.0625 C4.77929688 3.49660156 3.68359375 2.93070312 2.5546875 2.34765625 C1.71164062 1.90292969 0.86859375 1.45820313 0 1 C0 0.67 0 0.34 0 0 Z " fill="#D471EC" transform="translate(656,367)"/><path d="M0 0 C1.98 1.65 3.96 3.3 6 5 C5.67 5.66 5.34 6.32 5 7 C2.85144546 6.3844197 0.70620375 5.75726569 -1.4375 5.125 C-2.63246094 4.77695312 -3.82742188 4.42890625 -5.05859375 4.0703125 C-8 3 -8 3 -9 1 C-4.545 1.99 -4.545 1.99 0 3 C0 2.01 0 1.02 0 0 Z " fill="#41A9F4" transform="translate(357,677)"/><path d="M0 0 C-1.01869464 2.19411153 -1.97564206 3.97174479 -3.5625 5.8125 C-5.50945189 8.77525287 -5.66490689 11.5150317 -6 15 C-6.33 15 -6.66 15 -7 15 C-7.48279288 10.17207121 -7.82060585 6.34532299 -4.625 2.4375 C-2 0 -2 0 0 0 Z " fill="#31B0F8" transform="translate(311,438)"/><path d="M0 0 C0 3.63195496 -0.95453155 4.74713911 -3 7.6875 C-3.556875 8.49574219 -4.11375 9.30398438 -4.6875 10.13671875 C-5.120625 10.75160156 -5.55375 11.36648438 -6 12 C-6.33 11.01 -6.66 10.02 -7 9 C-5.8203125 6.9921875 -5.8203125 6.9921875 -4.125 4.875 C-3.57070313 4.17117188 -3.01640625 3.46734375 -2.4453125 2.7421875 C-1 1 -1 1 0 0 Z " fill="#AA47D3" transform="translate(743,482)"/><path d="M0 0 C0.66 0 1.32 0 2 0 C0.59928507 5.29158974 -2.85487245 7.77478044 -7 11 C-5.68747786 8.25342589 -4.24706499 5.74276346 -2.5 3.25 C-2.0771875 2.63640625 -1.654375 2.0228125 -1.21875 1.390625 C-0.8165625 0.93171875 -0.414375 0.4728125 0 0 Z " fill="#8F53DD" transform="translate(675,447)"/><path d="M0 0 C0.33 0 0.66 0 1 0 C1.49230769 7.26153846 1.49230769 7.26153846 -1 11 C-1.66 11.66 -2.32 12.32 -3 13 C-2.68817931 11.58318366 -2.37551263 10.16655349 -2.0625 8.75 C-1.88847656 7.96109375 -1.71445312 7.1721875 -1.53515625 6.359375 C-1.052444 4.23121297 -0.53836822 2.11467158 0 0 Z " fill="#9F38CB" transform="translate(752,457)"/><path d="M0 0 C0.66 0 1.32 0 2 0 C2 1.98 2 3.96 2 6 C1.34 6 0.68 6 0 6 C-0.33 7.32 -0.66 8.64 -1 10 C-1.125 3.375 -1.125 3.375 0 0 Z " fill="#C552D7" transform="translate(753,441)"/></svg>